<?xml version="1.0" encoding="UTF-8"?>
<svg xmlns="http://www.w3.org/2000/svg" xmlns:xlink="http://www.w3.org/1999/xlink" width="462pt" height="244pt" viewBox="0 0 462 244" version="1.2">
<defs>
<g>
<symbol overflow="visible" id="glyph0-0">
<path style="stroke:none;" d="M 1.71875 0 L 1.71875 -8.5625 L 8.5625 -8.5625 L 8.5625 0 Z M 1.921875 -0.21875 L 8.34375 -0.21875 L 8.34375 -8.34375 L 1.921875 -8.34375 Z M 1.921875 -0.21875 "/>
</symbol>
<symbol overflow="visible" id="glyph0-1">
<path style="stroke:none;" d="M 0.609375 -3.15625 L 1.84375 -3.265625 C 1.894531 -2.765625 2.023438 -2.359375 2.234375 -2.046875 C 2.453125 -1.734375 2.785156 -1.476562 3.234375 -1.28125 C 3.679688 -1.09375 4.179688 -1 4.734375 -1 C 5.234375 -1 5.671875 -1.070312 6.046875 -1.21875 C 6.429688 -1.363281 6.710938 -1.5625 6.890625 -1.8125 C 7.078125 -2.070312 7.171875 -2.351562 7.171875 -2.65625 C 7.171875 -2.96875 7.082031 -3.238281 6.90625 -3.46875 C 6.726562 -3.695312 6.429688 -3.890625 6.015625 -4.046875 C 5.753906 -4.148438 5.171875 -4.304688 4.265625 -4.515625 C 3.367188 -4.734375 2.738281 -4.941406 2.375 -5.140625 C 1.90625 -5.378906 1.554688 -5.679688 1.328125 -6.046875 C 1.097656 -6.410156 0.984375 -6.816406 0.984375 -7.265625 C 0.984375 -7.765625 1.125 -8.226562 1.40625 -8.65625 C 1.6875 -9.09375 2.097656 -9.421875 2.640625 -9.640625 C 3.179688 -9.859375 3.78125 -9.96875 4.4375 -9.96875 C 5.164062 -9.96875 5.804688 -9.851562 6.359375 -9.625 C 6.921875 -9.394531 7.347656 -9.050781 7.640625 -8.59375 C 7.941406 -8.132812 8.101562 -7.617188 8.125 -7.046875 L 6.890625 -6.953125 C 6.816406 -7.566406 6.585938 -8.03125 6.203125 -8.34375 C 5.816406 -8.664062 5.25 -8.828125 4.5 -8.828125 C 3.707031 -8.828125 3.128906 -8.679688 2.765625 -8.390625 C 2.410156 -8.109375 2.234375 -7.765625 2.234375 -7.359375 C 2.234375 -7.003906 2.363281 -6.710938 2.625 -6.484375 C 2.875 -6.265625 3.523438 -6.035156 4.578125 -5.796875 C 5.628906 -5.554688 6.351562 -5.347656 6.75 -5.171875 C 7.320312 -4.898438 7.742188 -4.5625 8.015625 -4.15625 C 8.285156 -3.757812 8.421875 -3.296875 8.421875 -2.765625 C 8.421875 -2.242188 8.269531 -1.753906 7.96875 -1.296875 C 7.675781 -0.835938 7.25 -0.476562 6.6875 -0.21875 C 6.125 0.0390625 5.492188 0.171875 4.796875 0.171875 C 3.910156 0.171875 3.164062 0.0390625 2.5625 -0.21875 C 1.96875 -0.476562 1.5 -0.867188 1.15625 -1.390625 C 0.8125 -1.910156 0.628906 -2.5 0.609375 -3.15625 Z M 0.609375 -3.15625 "/>
</symbol>
<symbol overflow="visible" id="glyph0-2">
<path style="stroke:none;" d="M 1.28125 0 L 1.28125 -9.8125 L 2.578125 -9.8125 L 2.578125 0 Z M 1.28125 0 "/>
</symbol>
<symbol overflow="visible" id="glyph0-3">
<path style="stroke:none;" d="M 1.015625 0 L 1.015625 -9.8125 L 2.96875 -9.8125 L 5.296875 -2.859375 C 5.503906 -2.210938 5.660156 -1.726562 5.765625 -1.40625 C 5.867188 -1.769531 6.039062 -2.296875 6.28125 -2.984375 L 8.625 -9.8125 L 10.375 -9.8125 L 10.375 0 L 9.125 0 L 9.125 -8.203125 L 6.28125 0 L 5.109375 0 L 2.265625 -8.34375 L 2.265625 0 Z M 1.015625 0 "/>
</symbol>
<symbol overflow="visible" id="glyph0-4">
<path style="stroke:none;" d="M 3.546875 0 L 3.546875 -8.65625 L 0.328125 -8.65625 L 0.328125 -9.8125 L 8.09375 -9.8125 L 8.09375 -8.65625 L 4.84375 -8.65625 L 4.84375 0 Z M 3.546875 0 "/>
</symbol>
<symbol overflow="visible" id="glyph0-5">
<path style="stroke:none;" d=""/>
</symbol>
<symbol overflow="visible" id="glyph0-6">
<path style="stroke:none;" d="M 5.546875 -2.609375 L 6.71875 -2.453125 C 6.59375 -1.628906 6.265625 -0.988281 5.734375 -0.53125 C 5.203125 -0.0703125 4.546875 0.15625 3.765625 0.15625 C 2.796875 0.15625 2.015625 -0.160156 1.421875 -0.796875 C 0.828125 -1.429688 0.53125 -2.34375 0.53125 -3.53125 C 0.53125 -4.289062 0.65625 -4.957031 0.90625 -5.53125 C 1.164062 -6.113281 1.554688 -6.546875 2.078125 -6.828125 C 2.597656 -7.117188 3.164062 -7.265625 3.78125 -7.265625 C 4.550781 -7.265625 5.179688 -7.066406 5.671875 -6.671875 C 6.160156 -6.285156 6.472656 -5.734375 6.609375 -5.015625 L 5.4375 -4.84375 C 5.320312 -5.3125 5.125 -5.664062 4.84375 -5.90625 C 4.5625 -6.15625 4.222656 -6.28125 3.828125 -6.28125 C 3.210938 -6.28125 2.710938 -6.0625 2.328125 -5.625 C 1.953125 -5.1875 1.765625 -4.5 1.765625 -3.5625 C 1.765625 -2.601562 1.945312 -1.90625 2.3125 -1.46875 C 2.6875 -1.039062 3.164062 -0.828125 3.75 -0.828125 C 4.226562 -0.828125 4.625 -0.972656 4.9375 -1.265625 C 5.25 -1.554688 5.453125 -2.003906 5.546875 -2.609375 Z M 5.546875 -2.609375 "/>
</symbol>
<symbol overflow="visible" id="glyph0-7">
<path style="stroke:none;" d="M 0.453125 -3.546875 C 0.453125 -4.867188 0.816406 -5.847656 1.546875 -6.484375 C 2.160156 -7.003906 2.90625 -7.265625 3.78125 -7.265625 C 4.757812 -7.265625 5.554688 -6.941406 6.171875 -6.296875 C 6.796875 -5.660156 7.109375 -4.78125 7.109375 -3.65625 C 7.109375 -2.738281 6.972656 -2.015625 6.703125 -1.484375 C 6.429688 -0.960938 6.03125 -0.554688 5.5 -0.265625 C 4.976562 0.015625 4.40625 0.15625 3.78125 0.15625 C 2.789062 0.15625 1.988281 -0.160156 1.375 -0.796875 C 0.757812 -1.429688 0.453125 -2.347656 0.453125 -3.546875 Z M 1.6875 -3.546875 C 1.6875 -2.640625 1.882812 -1.957031 2.28125 -1.5 C 2.6875 -1.050781 3.1875 -0.828125 3.78125 -0.828125 C 4.382812 -0.828125 4.882812 -1.050781 5.28125 -1.5 C 5.675781 -1.957031 5.875 -2.65625 5.875 -3.59375 C 5.875 -4.46875 5.671875 -5.128906 5.265625 -5.578125 C 4.867188 -6.035156 4.375 -6.265625 3.78125 -6.265625 C 3.1875 -6.265625 2.6875 -6.039062 2.28125 -5.59375 C 1.882812 -5.144531 1.6875 -4.460938 1.6875 -3.546875 Z M 1.6875 -3.546875 "/>
</symbol>
<symbol overflow="visible" id="glyph0-8">
<path style="stroke:none;" d="M 0.890625 0 L 0.890625 -7.109375 L 1.96875 -7.109375 L 1.96875 -6.03125 C 2.25 -6.53125 2.503906 -6.859375 2.734375 -7.015625 C 2.972656 -7.179688 3.234375 -7.265625 3.515625 -7.265625 C 3.921875 -7.265625 4.332031 -7.132812 4.75 -6.875 L 4.328125 -5.765625 C 4.035156 -5.929688 3.742188 -6.015625 3.453125 -6.015625 C 3.191406 -6.015625 2.953125 -5.9375 2.734375 -5.78125 C 2.523438 -5.625 2.378906 -5.40625 2.296875 -5.125 C 2.160156 -4.695312 2.09375 -4.226562 2.09375 -3.71875 L 2.09375 0 Z M 0.890625 0 "/>
</symbol>
<symbol overflow="visible" id="glyph0-9">
<path style="stroke:none;" d="M 5.765625 -2.28125 L 7.015625 -2.140625 C 6.816406 -1.410156 6.453125 -0.84375 5.921875 -0.4375 C 5.390625 -0.0390625 4.710938 0.15625 3.890625 0.15625 C 2.847656 0.15625 2.019531 -0.160156 1.40625 -0.796875 C 0.800781 -1.441406 0.5 -2.34375 0.5 -3.5 C 0.5 -4.6875 0.804688 -5.609375 1.421875 -6.265625 C 2.035156 -6.929688 2.835938 -7.265625 3.828125 -7.265625 C 4.773438 -7.265625 5.546875 -6.941406 6.140625 -6.296875 C 6.742188 -5.648438 7.046875 -4.738281 7.046875 -3.5625 C 7.046875 -3.488281 7.046875 -3.382812 7.046875 -3.25 L 1.75 -3.25 C 1.789062 -2.46875 2.007812 -1.867188 2.40625 -1.453125 C 2.800781 -1.035156 3.296875 -0.828125 3.890625 -0.828125 C 4.335938 -0.828125 4.71875 -0.941406 5.03125 -1.171875 C 5.34375 -1.410156 5.585938 -1.78125 5.765625 -2.28125 Z M 1.8125 -4.234375 L 5.78125 -4.234375 C 5.726562 -4.828125 5.578125 -5.273438 5.328125 -5.578125 C 4.941406 -6.046875 4.441406 -6.28125 3.828125 -6.28125 C 3.273438 -6.28125 2.8125 -6.09375 2.4375 -5.71875 C 2.0625 -5.351562 1.851562 -4.859375 1.8125 -4.234375 Z M 1.8125 -4.234375 "/>
</symbol>
<symbol overflow="visible" id="glyph0-10">
<path style="stroke:none;" d="M 0.421875 -2.125 L 1.609375 -2.3125 C 1.679688 -1.832031 1.867188 -1.460938 2.171875 -1.203125 C 2.472656 -0.953125 2.898438 -0.828125 3.453125 -0.828125 C 4.003906 -0.828125 4.410156 -0.9375 4.671875 -1.15625 C 4.941406 -1.382812 5.078125 -1.648438 5.078125 -1.953125 C 5.078125 -2.234375 4.960938 -2.453125 4.734375 -2.609375 C 4.566406 -2.710938 4.15625 -2.847656 3.5 -3.015625 C 2.613281 -3.234375 2 -3.421875 1.65625 -3.578125 C 1.320312 -3.742188 1.066406 -3.972656 0.890625 -4.265625 C 0.710938 -4.554688 0.625 -4.875 0.625 -5.21875 C 0.625 -5.53125 0.695312 -5.820312 0.84375 -6.09375 C 0.988281 -6.363281 1.1875 -6.585938 1.4375 -6.765625 C 1.625 -6.910156 1.878906 -7.03125 2.203125 -7.125 C 2.523438 -7.21875 2.867188 -7.265625 3.234375 -7.265625 C 3.796875 -7.265625 4.285156 -7.179688 4.703125 -7.015625 C 5.128906 -6.859375 5.441406 -6.644531 5.640625 -6.375 C 5.835938 -6.101562 5.976562 -5.734375 6.0625 -5.265625 L 4.875 -5.109375 C 4.820312 -5.472656 4.664062 -5.757812 4.40625 -5.96875 C 4.15625 -6.175781 3.796875 -6.28125 3.328125 -6.28125 C 2.773438 -6.28125 2.378906 -6.1875 2.140625 -6 C 1.898438 -5.820312 1.78125 -5.609375 1.78125 -5.359375 C 1.78125 -5.203125 1.832031 -5.0625 1.9375 -4.9375 C 2.03125 -4.8125 2.179688 -4.703125 2.390625 -4.609375 C 2.515625 -4.566406 2.867188 -4.46875 3.453125 -4.3125 C 4.304688 -4.082031 4.898438 -3.894531 5.234375 -3.75 C 5.578125 -3.601562 5.84375 -3.390625 6.03125 -3.109375 C 6.226562 -2.835938 6.328125 -2.5 6.328125 -2.09375 C 6.328125 -1.6875 6.207031 -1.304688 5.96875 -0.953125 C 5.738281 -0.597656 5.398438 -0.320312 4.953125 -0.125 C 4.515625 0.0625 4.015625 0.15625 3.453125 0.15625 C 2.535156 0.15625 1.832031 -0.03125 1.34375 -0.40625 C 0.863281 -0.789062 0.554688 -1.363281 0.421875 -2.125 Z M 0.421875 -2.125 "/>
</symbol>
<symbol overflow="visible" id="glyph0-11">
<path style="stroke:none;" d="M 1 0 L 1 -9.8125 L 2.296875 -9.8125 L 2.296875 -1.15625 L 7.125 -1.15625 L 7.125 0 Z M 1 0 "/>
</symbol>
<symbol overflow="visible" id="glyph0-12">
<path style="stroke:none;" d="M 6.890625 -1.15625 L 6.890625 0 L 0.421875 0 C 0.410156 -0.289062 0.457031 -0.570312 0.5625 -0.84375 C 0.71875 -1.28125 0.976562 -1.710938 1.34375 -2.140625 C 1.707031 -2.566406 2.234375 -3.0625 2.921875 -3.625 C 3.984375 -4.5 4.703125 -5.191406 5.078125 -5.703125 C 5.453125 -6.210938 5.640625 -6.695312 5.640625 -7.15625 C 5.640625 -7.632812 5.46875 -8.035156 5.125 -8.359375 C 4.789062 -8.691406 4.347656 -8.859375 3.796875 -8.859375 C 3.222656 -8.859375 2.757812 -8.679688 2.40625 -8.328125 C 2.0625 -7.984375 1.882812 -7.503906 1.875 -6.890625 L 0.640625 -7.015625 C 0.722656 -7.929688 1.039062 -8.628906 1.59375 -9.109375 C 2.144531 -9.597656 2.890625 -9.84375 3.828125 -9.84375 C 4.765625 -9.84375 5.507812 -9.582031 6.0625 -9.0625 C 6.613281 -8.539062 6.890625 -7.894531 6.890625 -7.125 C 6.890625 -6.726562 6.804688 -6.34375 6.640625 -5.96875 C 6.484375 -5.59375 6.21875 -5.191406 5.84375 -4.765625 C 5.46875 -4.347656 4.847656 -3.773438 3.984375 -3.046875 C 3.265625 -2.441406 2.800781 -2.03125 2.59375 -1.8125 C 2.382812 -1.59375 2.21875 -1.375 2.09375 -1.15625 Z M 6.890625 -1.15625 "/>
</symbol>
<symbol overflow="visible" id="glyph0-13">
<path style="stroke:none;" d="M 8.0625 -3.4375 L 9.359375 -3.109375 C 9.085938 -2.046875 8.597656 -1.234375 7.890625 -0.671875 C 7.179688 -0.109375 6.316406 0.171875 5.296875 0.171875 C 4.234375 0.171875 3.367188 -0.0390625 2.703125 -0.46875 C 2.046875 -0.90625 1.546875 -1.53125 1.203125 -2.34375 C 0.859375 -3.164062 0.6875 -4.046875 0.6875 -4.984375 C 0.6875 -6.003906 0.878906 -6.894531 1.265625 -7.65625 C 1.660156 -8.414062 2.21875 -8.988281 2.9375 -9.375 C 3.65625 -9.769531 4.445312 -9.96875 5.3125 -9.96875 C 6.289062 -9.96875 7.113281 -9.71875 7.78125 -9.21875 C 8.457031 -8.726562 8.925781 -8.03125 9.1875 -7.125 L 7.90625 -6.8125 C 7.675781 -7.53125 7.34375 -8.050781 6.90625 -8.375 C 6.476562 -8.695312 5.9375 -8.859375 5.28125 -8.859375 C 4.53125 -8.859375 3.898438 -8.675781 3.390625 -8.3125 C 2.890625 -7.957031 2.535156 -7.472656 2.328125 -6.859375 C 2.117188 -6.253906 2.015625 -5.628906 2.015625 -4.984375 C 2.015625 -4.148438 2.132812 -3.421875 2.375 -2.796875 C 2.625 -2.171875 3.003906 -1.703125 3.515625 -1.390625 C 4.023438 -1.085938 4.582031 -0.9375 5.1875 -0.9375 C 5.914062 -0.9375 6.53125 -1.144531 7.03125 -1.5625 C 7.53125 -1.988281 7.875 -2.613281 8.0625 -3.4375 Z M 8.0625 -3.4375 "/>
</symbol>
<symbol overflow="visible" id="glyph0-14">
<path style="stroke:none;" d="M 5.546875 -0.875 C 5.097656 -0.5 4.664062 -0.234375 4.25 -0.078125 C 3.84375 0.078125 3.398438 0.15625 2.921875 0.15625 C 2.140625 0.15625 1.539062 -0.03125 1.125 -0.40625 C 0.707031 -0.789062 0.5 -1.28125 0.5 -1.875 C 0.5 -2.21875 0.578125 -2.535156 0.734375 -2.828125 C 0.890625 -3.117188 1.09375 -3.347656 1.34375 -3.515625 C 1.601562 -3.691406 1.894531 -3.828125 2.21875 -3.921875 C 2.457031 -3.984375 2.816406 -4.039062 3.296875 -4.09375 C 4.265625 -4.207031 4.976562 -4.347656 5.4375 -4.515625 C 5.445312 -4.671875 5.453125 -4.773438 5.453125 -4.828125 C 5.453125 -5.316406 5.335938 -5.660156 5.109375 -5.859375 C 4.796875 -6.128906 4.335938 -6.265625 3.734375 -6.265625 C 3.171875 -6.265625 2.753906 -6.164062 2.484375 -5.96875 C 2.210938 -5.769531 2.007812 -5.421875 1.875 -4.921875 L 0.703125 -5.078125 C 0.804688 -5.578125 0.976562 -5.984375 1.21875 -6.296875 C 1.46875 -6.609375 1.820312 -6.847656 2.28125 -7.015625 C 2.75 -7.179688 3.289062 -7.265625 3.90625 -7.265625 C 4.507812 -7.265625 5 -7.191406 5.375 -7.046875 C 5.757812 -6.910156 6.039062 -6.734375 6.21875 -6.515625 C 6.394531 -6.296875 6.519531 -6.019531 6.59375 -5.6875 C 6.632812 -5.488281 6.65625 -5.117188 6.65625 -4.578125 L 6.65625 -2.984375 C 6.65625 -1.859375 6.679688 -1.144531 6.734375 -0.84375 C 6.785156 -0.550781 6.882812 -0.269531 7.03125 0 L 5.78125 0 C 5.65625 -0.25 5.578125 -0.539062 5.546875 -0.875 Z M 5.4375 -3.5625 C 5 -3.382812 4.34375 -3.234375 3.46875 -3.109375 C 2.976562 -3.035156 2.628906 -2.953125 2.421875 -2.859375 C 2.210938 -2.773438 2.050781 -2.644531 1.9375 -2.46875 C 1.832031 -2.300781 1.78125 -2.113281 1.78125 -1.90625 C 1.78125 -1.582031 1.898438 -1.3125 2.140625 -1.09375 C 2.390625 -0.882812 2.75 -0.78125 3.21875 -0.78125 C 3.675781 -0.78125 4.082031 -0.878906 4.4375 -1.078125 C 4.800781 -1.285156 5.070312 -1.566406 5.25 -1.921875 C 5.375 -2.191406 5.4375 -2.59375 5.4375 -3.125 Z M 5.4375 -3.5625 "/>
</symbol>
<symbol overflow="visible" id="glyph0-15">
<path style="stroke:none;" d="M 0.90625 0 L 0.90625 -9.8125 L 2.109375 -9.8125 L 2.109375 -6.296875 C 2.671875 -6.941406 3.378906 -7.265625 4.234375 -7.265625 C 4.765625 -7.265625 5.222656 -7.160156 5.609375 -6.953125 C 5.992188 -6.742188 6.269531 -6.457031 6.4375 -6.09375 C 6.601562 -5.726562 6.6875 -5.195312 6.6875 -4.5 L 6.6875 0 L 5.484375 0 L 5.484375 -4.5 C 5.484375 -5.101562 5.351562 -5.539062 5.09375 -5.8125 C 4.832031 -6.09375 4.460938 -6.234375 3.984375 -6.234375 C 3.628906 -6.234375 3.296875 -6.140625 2.984375 -5.953125 C 2.671875 -5.765625 2.445312 -5.507812 2.3125 -5.1875 C 2.175781 -4.875 2.109375 -4.441406 2.109375 -3.890625 L 2.109375 0 Z M 0.90625 0 "/>
</symbol>
<symbol overflow="visible" id="glyph1-0">
<path style="stroke:none;" d="M 1.53125 0 L 1.53125 -7.671875 L 7.671875 -7.671875 L 7.671875 0 Z M 1.71875 -0.1875 L 7.46875 -0.1875 L 7.46875 -7.46875 L 1.71875 -7.46875 Z M 1.71875 -0.1875 "/>
</symbol>
<symbol overflow="visible" id="glyph1-1">
<path style="stroke:none;" d="M 3.1875 0 L 3.1875 -7.75 L 0.28125 -7.75 L 0.28125 -8.78125 L 7.25 -8.78125 L 7.25 -7.75 L 4.34375 -7.75 L 4.34375 0 Z M 3.1875 0 "/>
</symbol>
<symbol overflow="visible" id="glyph1-2">
<path style="stroke:none;" d="M 5.15625 -2.046875 L 6.28125 -1.90625 C 6.101562 -1.257812 5.773438 -0.753906 5.296875 -0.390625 C 4.828125 -0.0351562 4.222656 0.140625 3.484375 0.140625 C 2.546875 0.140625 1.804688 -0.144531 1.265625 -0.71875 C 0.722656 -1.289062 0.453125 -2.09375 0.453125 -3.125 C 0.453125 -4.195312 0.726562 -5.023438 1.28125 -5.609375 C 1.832031 -6.203125 2.546875 -6.5 3.421875 -6.5 C 4.273438 -6.5 4.96875 -6.207031 5.5 -5.625 C 6.039062 -5.050781 6.3125 -4.238281 6.3125 -3.1875 C 6.3125 -3.125 6.3125 -3.03125 6.3125 -2.90625 L 1.5625 -2.90625 C 1.601562 -2.207031 1.800781 -1.671875 2.15625 -1.296875 C 2.507812 -0.929688 2.953125 -0.75 3.484375 -0.75 C 3.878906 -0.75 4.21875 -0.847656 4.5 -1.046875 C 4.78125 -1.253906 5 -1.585938 5.15625 -2.046875 Z M 1.625 -3.796875 L 5.171875 -3.796875 C 5.128906 -4.328125 4.992188 -4.726562 4.765625 -5 C 4.421875 -5.414062 3.976562 -5.625 3.4375 -5.625 C 2.9375 -5.625 2.515625 -5.457031 2.171875 -5.125 C 1.835938 -4.789062 1.65625 -4.347656 1.625 -3.796875 Z M 1.625 -3.796875 "/>
</symbol>
<symbol overflow="visible" id="glyph1-3">
<path style="stroke:none;" d="M 0.8125 0 L 0.8125 -6.359375 L 1.78125 -6.359375 L 1.78125 -5.453125 C 2.25 -6.148438 2.921875 -6.5 3.796875 -6.5 C 4.179688 -6.5 4.535156 -6.429688 4.859375 -6.296875 C 5.179688 -6.160156 5.421875 -5.976562 5.578125 -5.75 C 5.742188 -5.53125 5.859375 -5.265625 5.921875 -4.953125 C 5.960938 -4.753906 5.984375 -4.40625 5.984375 -3.90625 L 5.984375 0 L 4.90625 0 L 4.90625 -3.875 C 4.90625 -4.3125 4.859375 -4.640625 4.765625 -4.859375 C 4.679688 -5.078125 4.53125 -5.25 4.3125 -5.375 C 4.101562 -5.5 3.859375 -5.5625 3.578125 -5.5625 C 3.117188 -5.5625 2.722656 -5.414062 2.390625 -5.125 C 2.054688 -4.84375 1.890625 -4.289062 1.890625 -3.46875 L 1.890625 0 Z M 0.8125 0 "/>
</symbol>
<symbol overflow="visible" id="glyph1-4">
<path style="stroke:none;" d="M 0.375 -1.90625 L 1.4375 -2.0625 C 1.5 -1.632812 1.664062 -1.304688 1.9375 -1.078125 C 2.21875 -0.859375 2.601562 -0.75 3.09375 -0.75 C 3.582031 -0.75 3.945312 -0.847656 4.1875 -1.046875 C 4.425781 -1.242188 4.546875 -1.476562 4.546875 -1.75 C 4.546875 -2 4.441406 -2.191406 4.234375 -2.328125 C 4.085938 -2.421875 3.71875 -2.539062 3.125 -2.6875 C 2.34375 -2.894531 1.796875 -3.070312 1.484375 -3.21875 C 1.179688 -3.363281 0.953125 -3.5625 0.796875 -3.8125 C 0.640625 -4.070312 0.5625 -4.359375 0.5625 -4.671875 C 0.5625 -4.953125 0.625 -5.210938 0.75 -5.453125 C 0.882812 -5.703125 1.0625 -5.90625 1.28125 -6.0625 C 1.445312 -6.1875 1.675781 -6.289062 1.96875 -6.375 C 2.257812 -6.457031 2.570312 -6.5 2.90625 -6.5 C 3.394531 -6.5 3.828125 -6.425781 4.203125 -6.28125 C 4.585938 -6.144531 4.867188 -5.953125 5.046875 -5.703125 C 5.222656 -5.460938 5.347656 -5.132812 5.421875 -4.71875 L 4.359375 -4.578125 C 4.316406 -4.898438 4.179688 -5.15625 3.953125 -5.34375 C 3.722656 -5.53125 3.398438 -5.625 2.984375 -5.625 C 2.484375 -5.625 2.125 -5.539062 1.90625 -5.375 C 1.695312 -5.207031 1.59375 -5.015625 1.59375 -4.796875 C 1.59375 -4.660156 1.640625 -4.535156 1.734375 -4.421875 C 1.816406 -4.304688 1.953125 -4.207031 2.140625 -4.125 C 2.253906 -4.09375 2.570312 -4.003906 3.09375 -3.859375 C 3.851562 -3.648438 4.382812 -3.476562 4.6875 -3.34375 C 4.988281 -3.21875 5.222656 -3.03125 5.390625 -2.78125 C 5.566406 -2.539062 5.65625 -2.238281 5.65625 -1.875 C 5.65625 -1.507812 5.550781 -1.164062 5.34375 -0.84375 C 5.132812 -0.53125 4.832031 -0.285156 4.4375 -0.109375 C 4.039062 0.0546875 3.59375 0.140625 3.09375 0.140625 C 2.269531 0.140625 1.640625 -0.03125 1.203125 -0.375 C 0.773438 -0.71875 0.5 -1.226562 0.375 -1.90625 Z M 0.375 -1.90625 "/>
</symbol>
<symbol overflow="visible" id="glyph1-5">
<path style="stroke:none;" d="M 0.40625 -3.1875 C 0.40625 -4.363281 0.734375 -5.234375 1.390625 -5.796875 C 1.929688 -6.265625 2.597656 -6.5 3.390625 -6.5 C 4.265625 -6.5 4.976562 -6.210938 5.53125 -5.640625 C 6.082031 -5.066406 6.359375 -4.273438 6.359375 -3.265625 C 6.359375 -2.453125 6.234375 -1.8125 5.984375 -1.34375 C 5.742188 -0.875 5.390625 -0.507812 4.921875 -0.25 C 4.453125 0.0078125 3.941406 0.140625 3.390625 0.140625 C 2.492188 0.140625 1.769531 -0.140625 1.21875 -0.703125 C 0.675781 -1.273438 0.40625 -2.101562 0.40625 -3.1875 Z M 1.515625 -3.1875 C 1.515625 -2.363281 1.691406 -1.75 2.046875 -1.34375 C 2.398438 -0.945312 2.847656 -0.75 3.390625 -0.75 C 3.921875 -0.75 4.363281 -0.953125 4.71875 -1.359375 C 5.082031 -1.765625 5.265625 -2.382812 5.265625 -3.21875 C 5.265625 -4 5.082031 -4.59375 4.71875 -5 C 4.363281 -5.40625 3.921875 -5.609375 3.390625 -5.609375 C 2.847656 -5.609375 2.398438 -5.40625 2.046875 -5 C 1.691406 -4.601562 1.515625 -4 1.515625 -3.1875 Z M 1.515625 -3.1875 "/>
</symbol>
<symbol overflow="visible" id="glyph1-6">
<path style="stroke:none;" d="M 0.796875 0 L 0.796875 -6.359375 L 1.765625 -6.359375 L 1.765625 -5.390625 C 2.015625 -5.847656 2.242188 -6.144531 2.453125 -6.28125 C 2.660156 -6.425781 2.890625 -6.5 3.140625 -6.5 C 3.503906 -6.5 3.875 -6.382812 4.25 -6.15625 L 3.875 -5.15625 C 3.613281 -5.3125 3.351562 -5.390625 3.09375 -5.390625 C 2.851562 -5.390625 2.640625 -5.316406 2.453125 -5.171875 C 2.265625 -5.035156 2.128906 -4.84375 2.046875 -4.59375 C 1.929688 -4.207031 1.875 -3.785156 1.875 -3.328125 L 1.875 0 Z M 0.796875 0 "/>
</symbol>
<symbol overflow="visible" id="glyph1-7">
<path style="stroke:none;" d=""/>
</symbol>
<symbol overflow="visible" id="glyph1-8">
<path style="stroke:none;" d="M 6.703125 -8.78125 L 7.875 -8.78125 L 7.875 -3.703125 C 7.875 -2.828125 7.769531 -2.128906 7.5625 -1.609375 C 7.363281 -1.085938 7.003906 -0.660156 6.484375 -0.328125 C 5.960938 -0.00390625 5.28125 0.15625 4.4375 0.15625 C 3.613281 0.15625 2.941406 0.015625 2.421875 -0.265625 C 1.898438 -0.554688 1.523438 -0.96875 1.296875 -1.5 C 1.078125 -2.039062 0.96875 -2.773438 0.96875 -3.703125 L 0.96875 -8.78125 L 2.125 -8.78125 L 2.125 -3.71875 C 2.125 -2.945312 2.191406 -2.378906 2.328125 -2.015625 C 2.472656 -1.660156 2.71875 -1.382812 3.0625 -1.1875 C 3.414062 -0.988281 3.84375 -0.890625 4.34375 -0.890625 C 5.195312 -0.890625 5.800781 -1.082031 6.15625 -1.46875 C 6.519531 -1.863281 6.703125 -2.613281 6.703125 -3.71875 Z M 6.703125 -8.78125 "/>
</symbol>
<symbol overflow="visible" id="glyph1-9">
<path style="stroke:none;" d="M 0.8125 -7.546875 L 0.8125 -8.78125 L 1.890625 -8.78125 L 1.890625 -7.546875 Z M 0.8125 0 L 0.8125 -6.359375 L 1.890625 -6.359375 L 1.890625 0 Z M 0.8125 0 "/>
</symbol>
<symbol overflow="visible" id="glyph1-10">
<path style="stroke:none;" d="M 3.15625 -0.96875 L 3.3125 -0.015625 C 3.007812 0.046875 2.738281 0.078125 2.5 0.078125 C 2.113281 0.078125 1.8125 0.0195312 1.59375 -0.09375 C 1.375 -0.21875 1.21875 -0.378906 1.125 -0.578125 C 1.039062 -0.785156 1 -1.210938 1 -1.859375 L 1 -5.515625 L 0.21875 -5.515625 L 0.21875 -6.359375 L 1 -6.359375 L 1 -7.9375 L 2.078125 -8.578125 L 2.078125 -6.359375 L 3.15625 -6.359375 L 3.15625 -5.515625 L 2.078125 -5.515625 L 2.078125 -1.796875 C 2.078125 -1.492188 2.09375 -1.296875 2.125 -1.203125 C 2.164062 -1.117188 2.226562 -1.050781 2.3125 -1 C 2.40625 -0.945312 2.53125 -0.921875 2.6875 -0.921875 C 2.8125 -0.921875 2.96875 -0.9375 3.15625 -0.96875 Z M 3.15625 -0.96875 "/>
</symbol>
<symbol overflow="visible" id="glyph1-11">
<path style="stroke:none;" d="M 0.546875 -2.828125 L 1.640625 -2.921875 C 1.691406 -2.484375 1.8125 -2.117188 2 -1.828125 C 2.195312 -1.546875 2.492188 -1.316406 2.890625 -1.140625 C 3.285156 -0.972656 3.734375 -0.890625 4.234375 -0.890625 C 4.679688 -0.890625 5.070312 -0.953125 5.40625 -1.078125 C 5.75 -1.210938 6.003906 -1.394531 6.171875 -1.625 C 6.335938 -1.851562 6.421875 -2.109375 6.421875 -2.390625 C 6.421875 -2.660156 6.335938 -2.894531 6.171875 -3.09375 C 6.015625 -3.300781 5.753906 -3.476562 5.390625 -3.625 C 5.148438 -3.71875 4.628906 -3.859375 3.828125 -4.046875 C 3.023438 -4.242188 2.457031 -4.425781 2.125 -4.59375 C 1.707031 -4.8125 1.394531 -5.082031 1.1875 -5.40625 C 0.988281 -5.738281 0.890625 -6.109375 0.890625 -6.515625 C 0.890625 -6.953125 1.015625 -7.363281 1.265625 -7.75 C 1.515625 -8.132812 1.878906 -8.425781 2.359375 -8.625 C 2.847656 -8.832031 3.390625 -8.9375 3.984375 -8.9375 C 4.628906 -8.9375 5.195312 -8.828125 5.6875 -8.609375 C 6.1875 -8.398438 6.570312 -8.09375 6.84375 -7.6875 C 7.113281 -7.28125 7.257812 -6.820312 7.28125 -6.3125 L 6.15625 -6.21875 C 6.101562 -6.78125 5.898438 -7.203125 5.546875 -7.484375 C 5.203125 -7.765625 4.695312 -7.90625 4.03125 -7.90625 C 3.320312 -7.90625 2.804688 -7.773438 2.484375 -7.515625 C 2.160156 -7.265625 2 -6.957031 2 -6.59375 C 2 -6.269531 2.113281 -6.007812 2.34375 -5.8125 C 2.570312 -5.601562 3.15625 -5.390625 4.09375 -5.171875 C 5.039062 -4.960938 5.691406 -4.78125 6.046875 -4.625 C 6.554688 -4.382812 6.929688 -4.082031 7.171875 -3.71875 C 7.421875 -3.363281 7.546875 -2.953125 7.546875 -2.484375 C 7.546875 -2.015625 7.410156 -1.570312 7.140625 -1.15625 C 6.867188 -0.738281 6.484375 -0.414062 5.984375 -0.1875 C 5.484375 0.0390625 4.921875 0.15625 4.296875 0.15625 C 3.503906 0.15625 2.835938 0.0390625 2.296875 -0.1875 C 1.753906 -0.425781 1.332031 -0.773438 1.03125 -1.234375 C 0.726562 -1.703125 0.566406 -2.234375 0.546875 -2.828125 Z M 0.546875 -2.828125 "/>
</symbol>
<symbol overflow="visible" id="glyph1-12">
<path style="stroke:none;" d="M 0.8125 0 L 0.8125 -8.78125 L 1.890625 -8.78125 L 1.890625 -5.625 C 2.390625 -6.207031 3.023438 -6.5 3.796875 -6.5 C 4.265625 -6.5 4.671875 -6.40625 5.015625 -6.21875 C 5.367188 -6.039062 5.617188 -5.785156 5.765625 -5.453125 C 5.910156 -5.128906 5.984375 -4.65625 5.984375 -4.03125 L 5.984375 0 L 4.90625 0 L 4.90625 -4.03125 C 4.90625 -4.570312 4.785156 -4.960938 4.546875 -5.203125 C 4.316406 -5.453125 3.988281 -5.578125 3.5625 -5.578125 C 3.25 -5.578125 2.953125 -5.492188 2.671875 -5.328125 C 2.390625 -5.160156 2.1875 -4.9375 2.0625 -4.65625 C 1.945312 -4.375 1.890625 -3.984375 1.890625 -3.484375 L 1.890625 0 Z M 0.8125 0 "/>
</symbol>
<symbol overflow="visible" id="glyph1-13">
<path style="stroke:none;" d="M 4.953125 -0.78125 C 4.554688 -0.445312 4.171875 -0.207031 3.796875 -0.0625 C 3.429688 0.0703125 3.039062 0.140625 2.625 0.140625 C 1.914062 0.140625 1.375 -0.0234375 1 -0.359375 C 0.625 -0.703125 0.4375 -1.140625 0.4375 -1.671875 C 0.4375 -1.984375 0.507812 -2.269531 0.65625 -2.53125 C 0.800781 -2.789062 0.988281 -3 1.21875 -3.15625 C 1.445312 -3.3125 1.703125 -3.425781 1.984375 -3.5 C 2.203125 -3.5625 2.523438 -3.617188 2.953125 -3.671875 C 3.816406 -3.773438 4.457031 -3.894531 4.875 -4.03125 C 4.875 -4.1875 4.875 -4.28125 4.875 -4.3125 C 4.875 -4.757812 4.769531 -5.070312 4.5625 -5.25 C 4.289062 -5.488281 3.882812 -5.609375 3.34375 -5.609375 C 2.832031 -5.609375 2.457031 -5.519531 2.21875 -5.34375 C 1.976562 -5.164062 1.800781 -4.851562 1.6875 -4.40625 L 0.625 -4.546875 C 0.71875 -4.992188 0.875 -5.359375 1.09375 -5.640625 C 1.320312 -5.921875 1.640625 -6.132812 2.046875 -6.28125 C 2.460938 -6.425781 2.945312 -6.5 3.5 -6.5 C 4.039062 -6.5 4.476562 -6.4375 4.8125 -6.3125 C 5.15625 -6.1875 5.40625 -6.023438 5.5625 -5.828125 C 5.726562 -5.640625 5.84375 -5.394531 5.90625 -5.09375 C 5.9375 -4.914062 5.953125 -4.585938 5.953125 -4.109375 L 5.953125 -2.671875 C 5.953125 -1.660156 5.972656 -1.019531 6.015625 -0.75 C 6.066406 -0.488281 6.160156 -0.238281 6.296875 0 L 5.171875 0 C 5.054688 -0.21875 4.984375 -0.476562 4.953125 -0.78125 Z M 4.875 -3.1875 C 4.476562 -3.03125 3.890625 -2.894531 3.109375 -2.78125 C 2.660156 -2.71875 2.34375 -2.644531 2.15625 -2.5625 C 1.976562 -2.488281 1.835938 -2.375 1.734375 -2.21875 C 1.640625 -2.0625 1.59375 -1.890625 1.59375 -1.703125 C 1.59375 -1.421875 1.703125 -1.179688 1.921875 -0.984375 C 2.140625 -0.796875 2.457031 -0.703125 2.875 -0.703125 C 3.289062 -0.703125 3.660156 -0.789062 3.984375 -0.96875 C 4.304688 -1.15625 4.546875 -1.40625 4.703125 -1.71875 C 4.816406 -1.957031 4.875 -2.316406 4.875 -2.796875 Z M 4.875 -3.1875 "/>
</symbol>
<symbol overflow="visible" id="glyph1-14">
<path style="stroke:none;" d="M 4.9375 0 L 4.9375 -0.796875 C 4.53125 -0.171875 3.9375 0.140625 3.15625 0.140625 C 2.644531 0.140625 2.175781 0.00390625 1.75 -0.265625 C 1.332031 -0.546875 1.003906 -0.9375 0.765625 -1.4375 C 0.535156 -1.945312 0.421875 -2.523438 0.421875 -3.171875 C 0.421875 -3.804688 0.523438 -4.378906 0.734375 -4.890625 C 0.941406 -5.410156 1.257812 -5.804688 1.6875 -6.078125 C 2.113281 -6.359375 2.585938 -6.5 3.109375 -6.5 C 3.492188 -6.5 3.832031 -6.414062 4.125 -6.25 C 4.425781 -6.09375 4.671875 -5.882812 4.859375 -5.625 L 4.859375 -8.78125 L 5.9375 -8.78125 L 5.9375 0 Z M 1.53125 -3.171875 C 1.53125 -2.359375 1.703125 -1.75 2.046875 -1.34375 C 2.390625 -0.945312 2.796875 -0.75 3.265625 -0.75 C 3.734375 -0.75 4.128906 -0.941406 4.453125 -1.328125 C 4.785156 -1.710938 4.953125 -2.296875 4.953125 -3.078125 C 4.953125 -3.953125 4.785156 -4.59375 4.453125 -5 C 4.117188 -5.40625 3.703125 -5.609375 3.203125 -5.609375 C 2.722656 -5.609375 2.320312 -5.410156 2 -5.015625 C 1.6875 -4.628906 1.53125 -4.015625 1.53125 -3.171875 Z M 1.53125 -3.171875 "/>
</symbol>
<symbol overflow="visible" id="glyph1-15">
<path style="stroke:none;" d="M 0.90625 0 L 0.90625 -8.78125 L 2.65625 -8.78125 L 4.734375 -2.5625 C 4.929688 -1.976562 5.070312 -1.546875 5.15625 -1.265625 C 5.257812 -1.585938 5.414062 -2.054688 5.625 -2.671875 L 7.71875 -8.78125 L 9.28125 -8.78125 L 9.28125 0 L 8.171875 0 L 8.171875 -7.34375 L 5.625 0 L 4.5625 0 L 2.03125 -7.46875 L 2.03125 0 Z M 0.90625 0 "/>
</symbol>
<symbol overflow="visible" id="glyph1-16">
<path style="stroke:none;" d="M 0.8125 0 L 0.8125 -6.359375 L 1.765625 -6.359375 L 1.765625 -5.46875 C 1.972656 -5.78125 2.238281 -6.03125 2.5625 -6.21875 C 2.894531 -6.40625 3.273438 -6.5 3.703125 -6.5 C 4.171875 -6.5 4.554688 -6.398438 4.859375 -6.203125 C 5.160156 -6.015625 5.375 -5.742188 5.5 -5.390625 C 6 -6.128906 6.65625 -6.5 7.46875 -6.5 C 8.09375 -6.5 8.570312 -6.320312 8.90625 -5.96875 C 9.25 -5.625 9.421875 -5.085938 9.421875 -4.359375 L 9.421875 0 L 8.359375 0 L 8.359375 -4 C 8.359375 -4.4375 8.320312 -4.75 8.25 -4.9375 C 8.175781 -5.125 8.046875 -5.273438 7.859375 -5.390625 C 7.679688 -5.503906 7.46875 -5.5625 7.21875 -5.5625 C 6.769531 -5.5625 6.398438 -5.410156 6.109375 -5.109375 C 5.816406 -4.816406 5.671875 -4.34375 5.671875 -3.6875 L 5.671875 0 L 4.59375 0 L 4.59375 -4.125 C 4.59375 -4.601562 4.503906 -4.960938 4.328125 -5.203125 C 4.148438 -5.441406 3.863281 -5.5625 3.46875 -5.5625 C 3.15625 -5.5625 2.867188 -5.484375 2.609375 -5.328125 C 2.359375 -5.171875 2.175781 -4.9375 2.0625 -4.625 C 1.945312 -4.320312 1.890625 -3.878906 1.890625 -3.296875 L 1.890625 0 Z M 0.8125 0 "/>
</symbol>
<symbol overflow="visible" id="glyph1-17">
<path style="stroke:none;" d="M 0.765625 2.453125 L 0.640625 1.4375 C 0.878906 1.5 1.082031 1.53125 1.25 1.53125 C 1.488281 1.53125 1.679688 1.488281 1.828125 1.40625 C 1.972656 1.332031 2.09375 1.222656 2.1875 1.078125 C 2.25 0.972656 2.359375 0.707031 2.515625 0.28125 C 2.535156 0.21875 2.566406 0.128906 2.609375 0.015625 L 0.203125 -6.359375 L 1.359375 -6.359375 L 2.6875 -2.671875 C 2.851562 -2.203125 3.003906 -1.710938 3.140625 -1.203125 C 3.265625 -1.703125 3.414062 -2.1875 3.59375 -2.65625 L 4.953125 -6.359375 L 6.03125 -6.359375 L 3.609375 0.109375 C 3.347656 0.804688 3.144531 1.285156 3 1.546875 C 2.8125 1.898438 2.59375 2.160156 2.34375 2.328125 C 2.09375 2.492188 1.796875 2.578125 1.453125 2.578125 C 1.242188 2.578125 1.015625 2.535156 0.765625 2.453125 Z M 0.765625 2.453125 "/>
</symbol>
<symbol overflow="visible" id="glyph1-18">
<path style="stroke:none;" d="M 0.890625 0 L 0.890625 -8.78125 L 2.0625 -8.78125 L 2.0625 -1.03125 L 6.390625 -1.03125 L 6.390625 0 Z M 0.890625 0 "/>
</symbol>
<symbol overflow="visible" id="glyph1-19">
<path style="stroke:none;" d="M 4.5625 0 L 3.484375 0 L 3.484375 -6.875 C 3.234375 -6.625 2.894531 -6.375 2.46875 -6.125 C 2.050781 -5.875 1.671875 -5.6875 1.328125 -5.5625 L 1.328125 -6.609375 C 1.929688 -6.890625 2.457031 -7.234375 2.90625 -7.640625 C 3.363281 -8.046875 3.6875 -8.4375 3.875 -8.8125 L 4.5625 -8.8125 Z M 4.5625 0 "/>
</symbol>
<symbol overflow="visible" id="glyph1-20">
<path style="stroke:none;" d="M 7.203125 -3.078125 L 8.375 -2.78125 C 8.125 -1.832031 7.679688 -1.101562 7.046875 -0.59375 C 6.421875 -0.09375 5.648438 0.15625 4.734375 0.15625 C 3.785156 0.15625 3.015625 -0.0351562 2.421875 -0.421875 C 1.835938 -0.804688 1.390625 -1.363281 1.078125 -2.09375 C 0.765625 -2.832031 0.609375 -3.617188 0.609375 -4.453125 C 0.609375 -5.367188 0.78125 -6.164062 1.125 -6.84375 C 1.476562 -7.53125 1.976562 -8.050781 2.625 -8.40625 C 3.269531 -8.757812 3.976562 -8.9375 4.75 -8.9375 C 5.632812 -8.9375 6.375 -8.710938 6.96875 -8.265625 C 7.570312 -7.816406 7.988281 -7.1875 8.21875 -6.375 L 7.078125 -6.109375 C 6.878906 -6.742188 6.582031 -7.207031 6.1875 -7.5 C 5.800781 -7.789062 5.316406 -7.9375 4.734375 -7.9375 C 4.054688 -7.9375 3.488281 -7.773438 3.03125 -7.453125 C 2.582031 -7.128906 2.265625 -6.691406 2.078125 -6.140625 C 1.898438 -5.597656 1.8125 -5.039062 1.8125 -4.46875 C 1.8125 -3.71875 1.921875 -3.0625 2.140625 -2.5 C 2.359375 -1.945312 2.695312 -1.53125 3.15625 -1.25 C 3.613281 -0.976562 4.109375 -0.84375 4.640625 -0.84375 C 5.296875 -0.84375 5.847656 -1.03125 6.296875 -1.40625 C 6.742188 -1.78125 7.046875 -2.335938 7.203125 -3.078125 Z M 7.203125 -3.078125 "/>
</symbol>
<symbol overflow="visible" id="glyph1-21">
<path style="stroke:none;" d="M 4.953125 -2.328125 L 6.015625 -2.1875 C 5.898438 -1.457031 5.601562 -0.882812 5.125 -0.46875 C 4.644531 -0.0625 4.0625 0.140625 3.375 0.140625 C 2.5 0.140625 1.796875 -0.140625 1.265625 -0.703125 C 0.742188 -1.273438 0.484375 -2.09375 0.484375 -3.15625 C 0.484375 -3.84375 0.59375 -4.441406 0.8125 -4.953125 C 1.039062 -5.472656 1.390625 -5.859375 1.859375 -6.109375 C 2.328125 -6.367188 2.832031 -6.5 3.375 -6.5 C 4.0625 -6.5 4.625 -6.320312 5.0625 -5.96875 C 5.507812 -5.625 5.796875 -5.128906 5.921875 -4.484375 L 4.875 -4.328125 C 4.769531 -4.753906 4.585938 -5.078125 4.328125 -5.296875 C 4.078125 -5.515625 3.773438 -5.625 3.421875 -5.625 C 2.878906 -5.625 2.4375 -5.425781 2.09375 -5.03125 C 1.757812 -4.644531 1.59375 -4.03125 1.59375 -3.1875 C 1.59375 -2.332031 1.753906 -1.710938 2.078125 -1.328125 C 2.398438 -0.941406 2.828125 -0.75 3.359375 -0.75 C 3.785156 -0.75 4.140625 -0.875 4.421875 -1.125 C 4.703125 -1.382812 4.878906 -1.785156 4.953125 -2.328125 Z M 4.953125 -2.328125 "/>
</symbol>
<symbol overflow="visible" id="glyph2-0">
<path style="stroke:none;" d="M 2.53125 0 L 2.53125 -12.625 L 12.625 -12.625 L 12.625 0 Z M 2.84375 -0.3125 L 12.296875 -0.3125 L 12.296875 -12.296875 L 2.84375 -12.296875 Z M 2.84375 -0.3125 "/>
</symbol>
<symbol overflow="visible" id="glyph2-1">
<path style="stroke:none;" d="M 1.828125 0 L 1.828125 -2.015625 L 3.859375 -2.015625 L 3.859375 0 Z M 1.828125 0 "/>
</symbol>
<symbol overflow="visible" id="glyph2-2">
<path style="stroke:none;" d="M 4.71875 4.25 C 3.738281 3.007812 2.910156 1.5625 2.234375 -0.09375 C 1.554688 -1.75 1.21875 -3.460938 1.21875 -5.234375 C 1.21875 -6.796875 1.472656 -8.296875 1.984375 -9.734375 C 2.578125 -11.390625 3.488281 -13.046875 4.71875 -14.703125 L 6 -14.703125 C 5.195312 -13.328125 4.671875 -12.347656 4.421875 -11.765625 C 4.015625 -10.859375 3.695312 -9.914062 3.46875 -8.9375 C 3.1875 -7.707031 3.046875 -6.46875 3.046875 -5.21875 C 3.046875 -2.0625 4.03125 1.09375 6 4.25 Z M 4.71875 4.25 "/>
</symbol>
<symbol overflow="visible" id="glyph2-3">
<path style="stroke:none;" d="M 8.15625 -1.296875 C 7.5 -0.734375 6.867188 -0.335938 6.265625 -0.109375 C 5.660156 0.117188 5.007812 0.234375 4.3125 0.234375 C 3.15625 0.234375 2.269531 -0.046875 1.65625 -0.609375 C 1.039062 -1.171875 0.734375 -1.890625 0.734375 -2.765625 C 0.734375 -3.273438 0.847656 -3.738281 1.078125 -4.15625 C 1.304688 -4.582031 1.609375 -4.921875 1.984375 -5.171875 C 2.367188 -5.429688 2.796875 -5.628906 3.265625 -5.765625 C 3.617188 -5.859375 4.144531 -5.945312 4.84375 -6.03125 C 6.28125 -6.195312 7.335938 -6.398438 8.015625 -6.640625 C 8.023438 -6.890625 8.03125 -7.046875 8.03125 -7.109375 C 8.03125 -7.828125 7.859375 -8.335938 7.515625 -8.640625 C 7.066406 -9.035156 6.394531 -9.234375 5.5 -9.234375 C 4.664062 -9.234375 4.050781 -9.085938 3.65625 -8.796875 C 3.257812 -8.503906 2.960938 -7.988281 2.765625 -7.25 L 1.03125 -7.484375 C 1.1875 -8.222656 1.445312 -8.820312 1.8125 -9.28125 C 2.175781 -9.738281 2.695312 -10.085938 3.375 -10.328125 C 4.0625 -10.578125 4.851562 -10.703125 5.75 -10.703125 C 6.644531 -10.703125 7.367188 -10.597656 7.921875 -10.390625 C 8.484375 -10.179688 8.894531 -9.914062 9.15625 -9.59375 C 9.425781 -9.28125 9.613281 -8.878906 9.71875 -8.390625 C 9.78125 -8.085938 9.8125 -7.539062 9.8125 -6.75 L 9.8125 -4.390625 C 9.8125 -2.734375 9.847656 -1.6875 9.921875 -1.25 C 9.992188 -0.8125 10.144531 -0.394531 10.375 0 L 8.515625 0 C 8.328125 -0.363281 8.207031 -0.796875 8.15625 -1.296875 Z M 8.015625 -5.25 C 7.367188 -4.988281 6.398438 -4.765625 5.109375 -4.578125 C 4.378906 -4.472656 3.863281 -4.351562 3.5625 -4.21875 C 3.257812 -4.09375 3.023438 -3.898438 2.859375 -3.640625 C 2.703125 -3.390625 2.625 -3.113281 2.625 -2.8125 C 2.625 -2.332031 2.800781 -1.9375 3.15625 -1.625 C 3.519531 -1.3125 4.046875 -1.15625 4.734375 -1.15625 C 5.410156 -1.15625 6.015625 -1.300781 6.546875 -1.59375 C 7.085938 -1.894531 7.484375 -2.304688 7.734375 -2.828125 C 7.921875 -3.234375 8.015625 -3.828125 8.015625 -4.609375 Z M 8.015625 -5.25 "/>
</symbol>
<symbol overflow="visible" id="glyph2-4">
<path style="stroke:none;" d="M 2.5 4.25 L 1.21875 4.25 C 3.1875 1.09375 4.171875 -2.0625 4.171875 -5.21875 C 4.171875 -6.457031 4.03125 -7.6875 3.75 -8.90625 C 3.519531 -9.882812 3.207031 -10.828125 2.8125 -11.734375 C 2.550781 -12.328125 2.019531 -13.316406 1.21875 -14.703125 L 2.5 -14.703125 C 3.726562 -13.046875 4.640625 -11.390625 5.234375 -9.734375 C 5.742188 -8.296875 6 -6.796875 6 -5.234375 C 6 -3.460938 5.65625 -1.75 4.96875 -0.09375 C 4.289062 1.5625 3.46875 3.007812 2.5 4.25 Z M 2.5 4.25 "/>
</symbol>
<symbol overflow="visible" id="glyph2-5">
<path style="stroke:none;" d=""/>
</symbol>
<symbol overflow="visible" id="glyph2-6">
<path style="stroke:none;" d="M 8.3125 -5.671875 L 8.3125 -7.359375 L 14.4375 -7.375 L 14.4375 -2.015625 C 13.5 -1.265625 12.53125 -0.695312 11.53125 -0.3125 C 10.53125 0.0625 9.503906 0.25 8.453125 0.25 C 7.035156 0.25 5.742188 -0.0507812 4.578125 -0.65625 C 3.421875 -1.269531 2.546875 -2.148438 1.953125 -3.296875 C 1.367188 -4.453125 1.078125 -5.738281 1.078125 -7.15625 C 1.078125 -8.5625 1.367188 -9.875 1.953125 -11.09375 C 2.546875 -12.3125 3.394531 -13.21875 4.5 -13.8125 C 5.601562 -14.40625 6.875 -14.703125 8.3125 -14.703125 C 9.351562 -14.703125 10.296875 -14.53125 11.140625 -14.1875 C 11.984375 -13.851562 12.644531 -13.382812 13.125 -12.78125 C 13.601562 -12.175781 13.96875 -11.382812 14.21875 -10.40625 L 12.5 -9.9375 C 12.28125 -10.675781 12.007812 -11.253906 11.6875 -11.671875 C 11.363281 -12.085938 10.898438 -12.421875 10.296875 -12.671875 C 9.703125 -12.929688 9.039062 -13.0625 8.3125 -13.0625 C 7.445312 -13.0625 6.691406 -12.925781 6.046875 -12.65625 C 5.410156 -12.394531 4.894531 -12.046875 4.5 -11.609375 C 4.113281 -11.179688 3.8125 -10.707031 3.59375 -10.1875 C 3.226562 -9.289062 3.046875 -8.320312 3.046875 -7.28125 C 3.046875 -5.988281 3.265625 -4.90625 3.703125 -4.03125 C 4.148438 -3.164062 4.796875 -2.523438 5.640625 -2.109375 C 6.492188 -1.691406 7.394531 -1.484375 8.34375 -1.484375 C 9.175781 -1.484375 9.984375 -1.640625 10.765625 -1.953125 C 11.554688 -2.273438 12.15625 -2.617188 12.5625 -2.984375 L 12.5625 -5.671875 Z M 8.3125 -5.671875 "/>
</symbol>
<symbol overflow="visible" id="glyph2-7">
<path style="stroke:none;" d="M 1.5625 0 L 1.5625 -14.453125 L 7.015625 -14.453125 C 7.972656 -14.453125 8.703125 -14.40625 9.203125 -14.3125 C 9.910156 -14.195312 10.503906 -13.972656 10.984375 -13.640625 C 11.460938 -13.304688 11.847656 -12.835938 12.140625 -12.234375 C 12.441406 -11.640625 12.59375 -10.984375 12.59375 -10.265625 C 12.59375 -9.035156 12.195312 -7.992188 11.40625 -7.140625 C 10.625 -6.296875 9.210938 -5.875 7.171875 -5.875 L 3.46875 -5.875 L 3.46875 0 Z M 3.46875 -7.578125 L 7.203125 -7.578125 C 8.441406 -7.578125 9.316406 -7.804688 9.828125 -8.265625 C 10.347656 -8.722656 10.609375 -9.375 10.609375 -10.21875 C 10.609375 -10.820312 10.457031 -11.335938 10.15625 -11.765625 C 9.851562 -12.191406 9.453125 -12.476562 8.953125 -12.625 C 8.628906 -12.707031 8.035156 -12.75 7.171875 -12.75 L 3.46875 -12.75 Z M 3.46875 -7.578125 "/>
</symbol>
<symbol overflow="visible" id="glyph2-8">
<path style="stroke:none;" d="M 11.046875 -14.453125 L 12.953125 -14.453125 L 12.953125 -6.109375 C 12.953125 -4.648438 12.785156 -3.492188 12.453125 -2.640625 C 12.128906 -1.785156 11.535156 -1.085938 10.671875 -0.546875 C 9.816406 -0.015625 8.691406 0.25 7.296875 0.25 C 5.953125 0.25 4.847656 0.015625 3.984375 -0.453125 C 3.117188 -0.921875 2.503906 -1.597656 2.140625 -2.484375 C 1.773438 -3.367188 1.59375 -4.578125 1.59375 -6.109375 L 1.59375 -14.453125 L 3.5 -14.453125 L 3.5 -6.109375 C 3.5 -4.859375 3.613281 -3.929688 3.84375 -3.328125 C 4.082031 -2.734375 4.484375 -2.273438 5.046875 -1.953125 C 5.617188 -1.640625 6.316406 -1.484375 7.140625 -1.484375 C 8.546875 -1.484375 9.546875 -1.800781 10.140625 -2.4375 C 10.742188 -3.070312 11.046875 -4.296875 11.046875 -6.109375 Z M 11.046875 -14.453125 "/>
</symbol>
<symbol overflow="visible" id="glyph3-0">
<path style="stroke:none;" d="M 1.53125 0 L 1.53125 -7.640625 L 7.640625 -7.640625 L 7.640625 0 Z M 1.71875 -0.1875 L 7.453125 -0.1875 L 7.453125 -7.453125 L 1.71875 -7.453125 Z M 1.71875 -0.1875 "/>
</symbol>
<symbol overflow="visible" id="glyph3-1">
<path style="stroke:none;" d="M 0.890625 0 L 0.890625 -8.75 L 2.0625 -8.75 L 2.0625 -1.03125 L 6.375 -1.03125 L 6.375 0 Z M 0.890625 0 "/>
</symbol>
<symbol overflow="visible" id="glyph3-2">
<path style="stroke:none;" d="M 4.5625 0 L 3.484375 0 L 3.484375 -6.859375 C 3.222656 -6.609375 2.878906 -6.359375 2.453125 -6.109375 C 2.035156 -5.859375 1.660156 -5.675781 1.328125 -5.5625 L 1.328125 -6.59375 C 1.929688 -6.875 2.457031 -7.210938 2.90625 -7.609375 C 3.351562 -8.015625 3.671875 -8.410156 3.859375 -8.796875 L 4.5625 -8.796875 Z M 4.5625 0 "/>
</symbol>
<symbol overflow="visible" id="glyph3-3">
<path style="stroke:none;" d=""/>
</symbol>
<symbol overflow="visible" id="glyph3-4">
<path style="stroke:none;" d="M 7.1875 -3.078125 L 8.34375 -2.78125 C 8.101562 -1.820312 7.664062 -1.09375 7.03125 -0.59375 C 6.40625 -0.09375 5.632812 0.15625 4.71875 0.15625 C 3.78125 0.15625 3.015625 -0.0351562 2.421875 -0.421875 C 1.828125 -0.804688 1.375 -1.363281 1.0625 -2.09375 C 0.757812 -2.820312 0.609375 -3.601562 0.609375 -4.4375 C 0.609375 -5.351562 0.78125 -6.148438 1.125 -6.828125 C 1.476562 -7.503906 1.972656 -8.019531 2.609375 -8.375 C 3.253906 -8.726562 3.96875 -8.90625 4.75 -8.90625 C 5.625 -8.90625 6.359375 -8.679688 6.953125 -8.234375 C 7.546875 -7.785156 7.960938 -7.160156 8.203125 -6.359375 L 7.0625 -6.09375 C 6.851562 -6.726562 6.554688 -7.191406 6.171875 -7.484375 C 5.785156 -7.773438 5.300781 -7.921875 4.71875 -7.921875 C 4.039062 -7.921875 3.476562 -7.757812 3.03125 -7.4375 C 2.582031 -7.113281 2.265625 -6.675781 2.078125 -6.125 C 1.890625 -5.582031 1.796875 -5.023438 1.796875 -4.453125 C 1.796875 -3.703125 1.90625 -3.050781 2.125 -2.5 C 2.34375 -1.945312 2.679688 -1.53125 3.140625 -1.25 C 3.597656 -0.976562 4.09375 -0.84375 4.625 -0.84375 C 5.28125 -0.84375 5.832031 -1.03125 6.28125 -1.40625 C 6.726562 -1.78125 7.03125 -2.335938 7.1875 -3.078125 Z M 7.1875 -3.078125 "/>
</symbol>
<symbol overflow="visible" id="glyph3-5">
<path style="stroke:none;" d="M 4.953125 -0.78125 C 4.546875 -0.445312 4.160156 -0.207031 3.796875 -0.0625 C 3.429688 0.0703125 3.035156 0.140625 2.609375 0.140625 C 1.910156 0.140625 1.375 -0.0234375 1 -0.359375 C 0.625 -0.703125 0.4375 -1.140625 0.4375 -1.671875 C 0.4375 -1.984375 0.503906 -2.265625 0.640625 -2.515625 C 0.785156 -2.773438 0.972656 -2.984375 1.203125 -3.140625 C 1.429688 -3.296875 1.691406 -3.414062 1.984375 -3.5 C 2.191406 -3.550781 2.507812 -3.601562 2.9375 -3.65625 C 3.800781 -3.757812 4.441406 -3.882812 4.859375 -4.03125 C 4.859375 -4.175781 4.859375 -4.269531 4.859375 -4.3125 C 4.859375 -4.75 4.757812 -5.054688 4.5625 -5.234375 C 4.28125 -5.472656 3.867188 -5.59375 3.328125 -5.59375 C 2.828125 -5.59375 2.457031 -5.503906 2.21875 -5.328125 C 1.976562 -5.148438 1.796875 -4.835938 1.671875 -4.390625 L 0.625 -4.53125 C 0.71875 -4.976562 0.875 -5.34375 1.09375 -5.625 C 1.3125 -5.90625 1.628906 -6.117188 2.046875 -6.265625 C 2.460938 -6.410156 2.941406 -6.484375 3.484375 -6.484375 C 4.023438 -6.484375 4.460938 -6.421875 4.796875 -6.296875 C 5.140625 -6.171875 5.390625 -6.007812 5.546875 -5.8125 C 5.710938 -5.625 5.828125 -5.378906 5.890625 -5.078125 C 5.921875 -4.898438 5.9375 -4.570312 5.9375 -4.09375 L 5.9375 -2.65625 C 5.9375 -1.65625 5.957031 -1.019531 6 -0.75 C 6.050781 -0.488281 6.144531 -0.238281 6.28125 0 L 5.15625 0 C 5.050781 -0.21875 4.984375 -0.476562 4.953125 -0.78125 Z M 4.859375 -3.1875 C 4.460938 -3.019531 3.875 -2.882812 3.09375 -2.78125 C 2.65625 -2.71875 2.34375 -2.644531 2.15625 -2.5625 C 1.976562 -2.476562 1.835938 -2.359375 1.734375 -2.203125 C 1.640625 -2.054688 1.59375 -1.890625 1.59375 -1.703125 C 1.59375 -1.410156 1.695312 -1.171875 1.90625 -0.984375 C 2.125 -0.796875 2.445312 -0.703125 2.875 -0.703125 C 3.28125 -0.703125 3.644531 -0.789062 3.96875 -0.96875 C 4.289062 -1.15625 4.53125 -1.40625 4.6875 -1.71875 C 4.800781 -1.957031 4.859375 -2.316406 4.859375 -2.796875 Z M 4.859375 -3.1875 "/>
</symbol>
<symbol overflow="visible" id="glyph3-6">
<path style="stroke:none;" d="M 4.953125 -2.328125 L 6 -2.1875 C 5.882812 -1.457031 5.585938 -0.882812 5.109375 -0.46875 C 4.640625 -0.0625 4.054688 0.140625 3.359375 0.140625 C 2.492188 0.140625 1.796875 -0.140625 1.265625 -0.703125 C 0.742188 -1.273438 0.484375 -2.085938 0.484375 -3.140625 C 0.484375 -3.828125 0.59375 -4.425781 0.8125 -4.9375 C 1.039062 -5.457031 1.382812 -5.84375 1.84375 -6.09375 C 2.3125 -6.351562 2.820312 -6.484375 3.375 -6.484375 C 4.0625 -6.484375 4.625 -6.304688 5.0625 -5.953125 C 5.5 -5.609375 5.78125 -5.117188 5.90625 -4.484375 L 4.859375 -4.3125 C 4.753906 -4.738281 4.578125 -5.0625 4.328125 -5.28125 C 4.078125 -5.5 3.769531 -5.609375 3.40625 -5.609375 C 2.863281 -5.609375 2.421875 -5.410156 2.078125 -5.015625 C 1.742188 -4.628906 1.578125 -4.015625 1.578125 -3.171875 C 1.578125 -2.328125 1.738281 -1.707031 2.0625 -1.3125 C 2.394531 -0.925781 2.820312 -0.734375 3.34375 -0.734375 C 3.769531 -0.734375 4.125 -0.863281 4.40625 -1.125 C 4.6875 -1.382812 4.867188 -1.785156 4.953125 -2.328125 Z M 4.953125 -2.328125 "/>
</symbol>
<symbol overflow="visible" id="glyph3-7">
<path style="stroke:none;" d="M 0.8125 0 L 0.8125 -8.75 L 1.875 -8.75 L 1.875 -5.609375 C 2.382812 -6.191406 3.019531 -6.484375 3.78125 -6.484375 C 4.25 -6.484375 4.65625 -6.390625 5 -6.203125 C 5.351562 -6.023438 5.601562 -5.769531 5.75 -5.4375 C 5.894531 -5.113281 5.96875 -4.640625 5.96875 -4.015625 L 5.96875 0 L 4.90625 0 L 4.90625 -4.015625 C 4.90625 -4.554688 4.785156 -4.945312 4.546875 -5.1875 C 4.316406 -5.4375 3.988281 -5.5625 3.5625 -5.5625 C 3.238281 -5.5625 2.9375 -5.476562 2.65625 -5.3125 C 2.375 -5.144531 2.171875 -4.921875 2.046875 -4.640625 C 1.929688 -4.359375 1.875 -3.96875 1.875 -3.46875 L 1.875 0 Z M 0.8125 0 "/>
</symbol>
<symbol overflow="visible" id="glyph3-8">
<path style="stroke:none;" d="M 5.15625 -2.046875 L 6.265625 -1.90625 C 6.085938 -1.257812 5.757812 -0.753906 5.28125 -0.390625 C 4.8125 -0.0351562 4.207031 0.140625 3.46875 0.140625 C 2.539062 0.140625 1.804688 -0.144531 1.265625 -0.71875 C 0.722656 -1.289062 0.453125 -2.09375 0.453125 -3.125 C 0.453125 -4.1875 0.722656 -5.007812 1.265625 -5.59375 C 1.816406 -6.1875 2.53125 -6.484375 3.40625 -6.484375 C 4.257812 -6.484375 4.953125 -6.191406 5.484375 -5.609375 C 6.023438 -5.035156 6.296875 -4.226562 6.296875 -3.1875 C 6.296875 -3.125 6.296875 -3.023438 6.296875 -2.890625 L 1.5625 -2.890625 C 1.601562 -2.203125 1.800781 -1.671875 2.15625 -1.296875 C 2.507812 -0.921875 2.953125 -0.734375 3.484375 -0.734375 C 3.867188 -0.734375 4.203125 -0.835938 4.484375 -1.046875 C 4.765625 -1.253906 4.988281 -1.585938 5.15625 -2.046875 Z M 1.625 -3.78125 L 5.15625 -3.78125 C 5.113281 -4.3125 4.976562 -4.710938 4.75 -4.984375 C 4.40625 -5.398438 3.960938 -5.609375 3.421875 -5.609375 C 2.929688 -5.609375 2.515625 -5.441406 2.171875 -5.109375 C 1.835938 -4.773438 1.65625 -4.332031 1.625 -3.78125 Z M 1.625 -3.78125 "/>
</symbol>
</g>
<clipPath id="clip1">
  <path d="M 217 101.199219 L 683 101.199219 L 683 345.199219 L 217 345.199219 Z M 217 101.199219 "/>
</clipPath>
<clipPath id="clip2">
  <path d="M 682 116 L 683 116 L 683 332 L 682 332 Z M 682 116 "/>
</clipPath>
</defs>
<g id="surface1">
<g clip-path="url(#clip1)" clip-rule="nonzero">
<path style=" stroke:none;fill-rule:evenodd;fill:rgb(100%,100%,100%);fill-opacity:1;" d="M 217 547.625 L 1117 547.625 L 1117 101.195312 L 217 101.195312 Z M 217 547.625 "/>
</g>
<path style="fill:none;stroke-width:1.0001;stroke-linecap:butt;stroke-linejoin:round;stroke:rgb(16.499329%,16.499329%,16.499329%);stroke-opacity:1;stroke-miterlimit:10;" d="M 173.160156 258.830469 L 173.160156 243.709375 " transform="matrix(1,0,0,-1,217,547.6)"/>
<path style="fill:none;stroke-width:1.0001;stroke-linecap:butt;stroke-linejoin:round;stroke:rgb(16.499329%,16.499329%,16.499329%);stroke-opacity:1;stroke-miterlimit:10;" d="M 276.121094 258.830469 L 276.121094 243.709375 " transform="matrix(1,0,0,-1,217,547.6)"/>
<path style="fill:none;stroke-width:1.0001;stroke-linecap:butt;stroke-linejoin:round;stroke:rgb(16.499329%,16.499329%,16.499329%);stroke-opacity:1;stroke-miterlimit:10;" d="M 405 258.830469 L 405 243.709375 " transform="matrix(1,0,0,-1,217,547.6)"/>
<path style="fill-rule:evenodd;fill:rgb(97.299194%,97.599792%,97.999573%);fill-opacity:1;stroke-width:1.0001;stroke-linecap:butt;stroke-linejoin:round;stroke:rgb(16.499329%,16.499329%,16.499329%);stroke-opacity:1;stroke-miterlimit:10;" d="M 126.359375 396.6 C 126.359375 405.209375 133.339844 412.201562 141.960938 412.201562 L 204.359375 412.201562 C 212.980469 412.201562 219.960938 405.209375 219.960938 396.6 L 219.960938 274.428125 C 219.960938 265.810937 212.980469 258.830469 204.359375 258.830469 L 141.960938 258.830469 C 133.339844 258.830469 126.359375 265.810937 126.359375 274.428125 Z M 126.359375 396.6 " transform="matrix(1,0,0,-1,217,547.6)"/>
<g style="fill:rgb(6.669617%,6.669617%,6.669617%);fill-opacity:1;">
  <use xlink:href="#glyph0-1" x="354.59" y="152.97"/>
</g>
<g style="fill:rgb(6.669617%,6.669617%,6.669617%);fill-opacity:1;">
  <use xlink:href="#glyph0-2" x="363.96422" y="152.97"/>
</g>
<g style="fill:rgb(6.669617%,6.669617%,6.669617%);fill-opacity:1;">
  <use xlink:href="#glyph0-3" x="367.568635" y="152.97"/>
</g>
<g style="fill:rgb(6.669617%,6.669617%,6.669617%);fill-opacity:1;">
  <use xlink:href="#glyph0-4" x="379.820905" y="152.97"/>
</g>
<g style="fill:rgb(6.669617%,6.669617%,6.669617%);fill-opacity:1;">
  <use xlink:href="#glyph0-5" x="387.769805" y="152.97"/>
</g>
<g style="fill:rgb(6.669617%,6.669617%,6.669617%);fill-opacity:1;">
  <use xlink:href="#glyph0-6" x="391.37422" y="152.97"/>
</g>
<g style="fill:rgb(6.669617%,6.669617%,6.669617%);fill-opacity:1;">
  <use xlink:href="#glyph0-7" x="398.58305" y="152.97"/>
</g>
<g style="fill:rgb(6.669617%,6.669617%,6.669617%);fill-opacity:1;">
  <use xlink:href="#glyph0-8" x="406.518245" y="152.97"/>
</g>
<g style="fill:rgb(6.669617%,6.669617%,6.669617%);fill-opacity:1;">
  <use xlink:href="#glyph0-9" x="410.83532" y="152.97"/>
</g>
<g style="fill:rgb(6.669617%,6.669617%,6.669617%);fill-opacity:1;">
  <use xlink:href="#glyph0-10" x="418.770515" y="152.97"/>
</g>
<path style="fill-rule:evenodd;fill:rgb(66.299438%,81.999207%,55.699158%);fill-opacity:1;stroke-width:0.55003;stroke-linecap:butt;stroke-linejoin:round;stroke:rgb(36.898804%,55.699158%,30.599976%);stroke-opacity:1;stroke-miterlimit:10;" d="M 147.960938 379.080469 L 156.601562 379.080469 L 156.601562 387.721094 L 147.960938 387.721094 Z M 147.960938 379.080469 " transform="matrix(1,0,0,-1,217,547.6)"/>
<path style="fill-rule:evenodd;fill:rgb(66.299438%,81.999207%,55.699158%);fill-opacity:1;stroke-width:0.55003;stroke-linecap:butt;stroke-linejoin:round;stroke:rgb(36.898804%,55.699158%,30.599976%);stroke-opacity:1;stroke-miterlimit:10;" d="M 162.359375 379.080469 L 171 379.080469 L 171 387.721094 L 162.359375 387.721094 Z M 162.359375 379.080469 " transform="matrix(1,0,0,-1,217,547.6)"/>
<path style="fill-rule:evenodd;fill:rgb(66.299438%,81.999207%,55.699158%);fill-opacity:1;stroke-width:0.55003;stroke-linecap:butt;stroke-linejoin:round;stroke:rgb(36.898804%,55.699158%,30.599976%);stroke-opacity:1;stroke-miterlimit:10;" d="M 176.761719 379.080469 L 185.398438 379.080469 L 185.398438 387.721094 L 176.761719 387.721094 Z M 176.761719 379.080469 " transform="matrix(1,0,0,-1,217,547.6)"/>
<path style="fill-rule:evenodd;fill:rgb(66.299438%,81.999207%,55.699158%);fill-opacity:1;stroke-width:0.55003;stroke-linecap:butt;stroke-linejoin:round;stroke:rgb(36.898804%,55.699158%,30.599976%);stroke-opacity:1;stroke-miterlimit:10;" d="M 191.160156 379.080469 L 199.800781 379.080469 L 199.800781 387.721094 L 191.160156 387.721094 Z M 191.160156 379.080469 " transform="matrix(1,0,0,-1,217,547.6)"/>
<path style="fill-rule:evenodd;fill:rgb(66.299438%,81.999207%,55.699158%);fill-opacity:1;stroke-width:0.55003;stroke-linecap:butt;stroke-linejoin:round;stroke:rgb(36.898804%,55.699158%,30.599976%);stroke-opacity:1;stroke-miterlimit:10;" d="M 147.960938 364.678125 L 156.601562 364.678125 L 156.601562 373.31875 L 147.960938 373.31875 Z M 147.960938 364.678125 " transform="matrix(1,0,0,-1,217,547.6)"/>
<path style="fill-rule:evenodd;fill:rgb(66.299438%,81.999207%,55.699158%);fill-opacity:1;stroke-width:0.55003;stroke-linecap:butt;stroke-linejoin:round;stroke:rgb(36.898804%,55.699158%,30.599976%);stroke-opacity:1;stroke-miterlimit:10;" d="M 162.359375 364.678125 L 171 364.678125 L 171 373.31875 L 162.359375 373.31875 Z M 162.359375 364.678125 " transform="matrix(1,0,0,-1,217,547.6)"/>
<path style="fill-rule:evenodd;fill:rgb(66.299438%,81.999207%,55.699158%);fill-opacity:1;stroke-width:0.55003;stroke-linecap:butt;stroke-linejoin:round;stroke:rgb(36.898804%,55.699158%,30.599976%);stroke-opacity:1;stroke-miterlimit:10;" d="M 176.761719 364.678125 L 185.398438 364.678125 L 185.398438 373.31875 L 176.761719 373.31875 Z M 176.761719 364.678125 " transform="matrix(1,0,0,-1,217,547.6)"/>
<path style="fill-rule:evenodd;fill:rgb(66.299438%,81.999207%,55.699158%);fill-opacity:1;stroke-width:0.55003;stroke-linecap:butt;stroke-linejoin:round;stroke:rgb(36.898804%,55.699158%,30.599976%);stroke-opacity:1;stroke-miterlimit:10;" d="M 191.160156 364.678125 L 199.800781 364.678125 L 199.800781 373.31875 L 191.160156 373.31875 Z M 191.160156 364.678125 " transform="matrix(1,0,0,-1,217,547.6)"/>
<path style="fill-rule:evenodd;fill:rgb(66.299438%,81.999207%,55.699158%);fill-opacity:1;stroke-width:1.0001;stroke-linecap:butt;stroke-linejoin:round;stroke:rgb(0%,0%,0%);stroke-opacity:1;stroke-miterlimit:10;" d="M 142.199219 350.869531 C 142.199219 353.721094 144.511719 356.029687 147.359375 356.029687 L 198.960938 356.029687 C 201.808594 356.029687 204.121094 353.721094 204.121094 350.869531 L 204.121094 330.228906 C 204.121094 327.38125 201.808594 325.06875 198.960938 325.06875 L 147.359375 325.06875 C 144.511719 325.06875 142.199219 327.38125 142.199219 330.228906 Z M 142.199219 350.869531 " transform="matrix(1,0,0,-1,217,547.6)"/>
<g style="fill:rgb(6.669617%,6.669617%,6.669617%);fill-opacity:1;">
  <use xlink:href="#glyph1-1" x="371.68" y="203.84"/>
</g>
<g style="fill:rgb(6.669617%,6.669617%,6.669617%);fill-opacity:1;">
  <use xlink:href="#glyph1-2" x="377.44455" y="203.84"/>
</g>
<g style="fill:rgb(6.669617%,6.669617%,6.669617%);fill-opacity:1;">
  <use xlink:href="#glyph1-3" x="384.65637" y="203.84"/>
</g>
<g style="fill:rgb(6.669617%,6.669617%,6.669617%);fill-opacity:1;">
  <use xlink:href="#glyph1-4" x="391.13229" y="203.84"/>
</g>
<g style="fill:rgb(6.669617%,6.669617%,6.669617%);fill-opacity:1;">
  <use xlink:href="#glyph1-5" x="396.89684" y="203.84"/>
</g>
<g style="fill:rgb(6.669617%,6.669617%,6.669617%);fill-opacity:1;">
  <use xlink:href="#glyph1-6" x="403.37276" y="203.84"/>
</g>
<g style="fill:rgb(6.669617%,6.669617%,6.669617%);fill-opacity:1;">
  <use xlink:href="#glyph1-7" x="407.677775" y="203.84"/>
</g>
<g style="fill:rgb(6.669617%,6.669617%,6.669617%);fill-opacity:1;">
  <use xlink:href="#glyph1-8" x="379.02" y="218.26"/>
</g>
<g style="fill:rgb(6.669617%,6.669617%,6.669617%);fill-opacity:1;">
  <use xlink:href="#glyph1-3" x="387.65456" y="218.26"/>
</g>
<g style="fill:rgb(6.669617%,6.669617%,6.669617%);fill-opacity:1;">
  <use xlink:href="#glyph1-9" x="394.13048" y="218.26"/>
</g>
<g style="fill:rgb(6.669617%,6.669617%,6.669617%);fill-opacity:1;">
  <use xlink:href="#glyph1-10" x="397.00049" y="218.26"/>
</g>
<path style="fill-rule:evenodd;fill:rgb(61.599731%,76.499939%,90.19928%);fill-opacity:1;stroke-width:1.0001;stroke-linecap:butt;stroke-linejoin:round;stroke:rgb(0%,0%,0%);stroke-opacity:1;stroke-miterlimit:10;" d="M 142.199219 314.150781 C 142.199219 316.998437 144.511719 319.310937 147.359375 319.310937 L 198.960938 319.310937 C 201.808594 319.310937 204.121094 316.998437 204.121094 314.150781 L 204.121094 293.510156 C 204.121094 290.658594 201.808594 288.35 198.960938 288.35 L 147.359375 288.35 C 144.511719 288.35 142.199219 290.658594 142.199219 293.510156 Z M 142.199219 314.150781 " transform="matrix(1,0,0,-1,217,547.6)"/>
<g style="fill:rgb(6.669617%,6.669617%,6.669617%);fill-opacity:1;">
  <use xlink:href="#glyph1-11" x="370.38" y="240.63"/>
</g>
<g style="fill:rgb(6.669617%,6.669617%,6.669617%);fill-opacity:1;">
  <use xlink:href="#glyph1-12" x="378.32772" y="240.63"/>
</g>
<g style="fill:rgb(6.669617%,6.669617%,6.669617%);fill-opacity:1;">
  <use xlink:href="#glyph1-13" x="384.80364" y="240.63"/>
</g>
<g style="fill:rgb(6.669617%,6.669617%,6.669617%);fill-opacity:1;">
  <use xlink:href="#glyph1-6" x="392.01546" y="240.63"/>
</g>
<g style="fill:rgb(6.669617%,6.669617%,6.669617%);fill-opacity:1;">
  <use xlink:href="#glyph1-2" x="395.62137" y="240.63"/>
</g>
<g style="fill:rgb(6.669617%,6.669617%,6.669617%);fill-opacity:1;">
  <use xlink:href="#glyph1-14" x="402.09729" y="240.63"/>
</g>
<g style="fill:rgb(6.669617%,6.669617%,6.669617%);fill-opacity:1;">
  <use xlink:href="#glyph1-15" x="368.03" y="255.06"/>
</g>
<g style="fill:rgb(6.669617%,6.669617%,6.669617%);fill-opacity:1;">
  <use xlink:href="#glyph1-2" x="378.11183" y="255.06"/>
</g>
<g style="fill:rgb(6.669617%,6.669617%,6.669617%);fill-opacity:1;">
  <use xlink:href="#glyph1-16" x="384.58775" y="255.06"/>
</g>
<g style="fill:rgb(6.669617%,6.669617%,6.669617%);fill-opacity:1;">
  <use xlink:href="#glyph1-5" x="394.66958" y="255.06"/>
</g>
<g style="fill:rgb(6.669617%,6.669617%,6.669617%);fill-opacity:1;">
  <use xlink:href="#glyph1-6" x="401.1455" y="255.06"/>
</g>
<g style="fill:rgb(6.669617%,6.669617%,6.669617%);fill-opacity:1;">
  <use xlink:href="#glyph1-17" x="405.450515" y="255.06"/>
</g>
<path style="fill-rule:evenodd;fill:rgb(97.299194%,97.599792%,97.999573%);fill-opacity:1;stroke-width:1.0001;stroke-linecap:butt;stroke-linejoin:round;stroke:rgb(16.499329%,16.499329%,16.499329%);stroke-opacity:1;stroke-miterlimit:10;" d="M 229.320312 396.6 C 229.320312 405.209375 236.300781 412.201562 244.921875 412.201562 L 307.320312 412.201562 C 315.941406 412.201562 322.921875 405.209375 322.921875 396.6 L 322.921875 274.428125 C 322.921875 265.810937 315.941406 258.830469 307.320312 258.830469 L 244.921875 258.830469 C 236.300781 258.830469 229.320312 265.810937 229.320312 274.428125 Z M 229.320312 396.6 " transform="matrix(1,0,0,-1,217,547.6)"/>
<g style="fill:rgb(6.669617%,6.669617%,6.669617%);fill-opacity:1;">
  <use xlink:href="#glyph0-1" x="457.65" y="152.97"/>
</g>
<g style="fill:rgb(6.669617%,6.669617%,6.669617%);fill-opacity:1;">
  <use xlink:href="#glyph0-2" x="466.99681" y="152.97"/>
</g>
<g style="fill:rgb(6.669617%,6.669617%,6.669617%);fill-opacity:1;">
  <use xlink:href="#glyph0-3" x="470.601225" y="152.97"/>
</g>
<g style="fill:rgb(6.669617%,6.669617%,6.669617%);fill-opacity:1;">
  <use xlink:href="#glyph0-4" x="482.826085" y="152.97"/>
</g>
<g style="fill:rgb(6.669617%,6.669617%,6.669617%);fill-opacity:1;">
  <use xlink:href="#glyph0-5" x="490.747575" y="152.97"/>
</g>
<g style="fill:rgb(6.669617%,6.669617%,6.669617%);fill-opacity:1;">
  <use xlink:href="#glyph0-6" x="494.35199" y="152.97"/>
</g>
<g style="fill:rgb(6.669617%,6.669617%,6.669617%);fill-opacity:1;">
  <use xlink:href="#glyph0-7" x="501.53341" y="152.97"/>
</g>
<g style="fill:rgb(6.669617%,6.669617%,6.669617%);fill-opacity:1;">
  <use xlink:href="#glyph0-8" x="509.441195" y="152.97"/>
</g>
<g style="fill:rgb(6.669617%,6.669617%,6.669617%);fill-opacity:1;">
  <use xlink:href="#glyph0-9" x="513.75827" y="152.97"/>
</g>
<g style="fill:rgb(6.669617%,6.669617%,6.669617%);fill-opacity:1;">
  <use xlink:href="#glyph0-10" x="521.666055" y="152.97"/>
</g>
<path style="fill-rule:evenodd;fill:rgb(66.299438%,81.999207%,55.699158%);fill-opacity:1;stroke-width:0.55003;stroke-linecap:butt;stroke-linejoin:round;stroke:rgb(36.898804%,55.699158%,30.599976%);stroke-opacity:1;stroke-miterlimit:10;" d="M 250.921875 379.080469 L 259.558594 379.080469 L 259.558594 387.721094 L 250.921875 387.721094 Z M 250.921875 379.080469 " transform="matrix(1,0,0,-1,217,547.6)"/>
<path style="fill-rule:evenodd;fill:rgb(66.299438%,81.999207%,55.699158%);fill-opacity:1;stroke-width:0.55003;stroke-linecap:butt;stroke-linejoin:round;stroke:rgb(36.898804%,55.699158%,30.599976%);stroke-opacity:1;stroke-miterlimit:10;" d="M 265.320312 379.080469 L 273.960938 379.080469 L 273.960938 387.721094 L 265.320312 387.721094 Z M 265.320312 379.080469 " transform="matrix(1,0,0,-1,217,547.6)"/>
<path style="fill-rule:evenodd;fill:rgb(66.299438%,81.999207%,55.699158%);fill-opacity:1;stroke-width:0.55003;stroke-linecap:butt;stroke-linejoin:round;stroke:rgb(36.898804%,55.699158%,30.599976%);stroke-opacity:1;stroke-miterlimit:10;" d="M 279.71875 379.080469 L 288.359375 379.080469 L 288.359375 387.721094 L 279.71875 387.721094 Z M 279.71875 379.080469 " transform="matrix(1,0,0,-1,217,547.6)"/>
<path style="fill-rule:evenodd;fill:rgb(66.299438%,81.999207%,55.699158%);fill-opacity:1;stroke-width:0.55003;stroke-linecap:butt;stroke-linejoin:round;stroke:rgb(36.898804%,55.699158%,30.599976%);stroke-opacity:1;stroke-miterlimit:10;" d="M 294.121094 379.080469 L 302.761719 379.080469 L 302.761719 387.721094 L 294.121094 387.721094 Z M 294.121094 379.080469 " transform="matrix(1,0,0,-1,217,547.6)"/>
<path style="fill-rule:evenodd;fill:rgb(66.299438%,81.999207%,55.699158%);fill-opacity:1;stroke-width:0.55003;stroke-linecap:butt;stroke-linejoin:round;stroke:rgb(36.898804%,55.699158%,30.599976%);stroke-opacity:1;stroke-miterlimit:10;" d="M 250.921875 364.678125 L 259.558594 364.678125 L 259.558594 373.31875 L 250.921875 373.31875 Z M 250.921875 364.678125 " transform="matrix(1,0,0,-1,217,547.6)"/>
<path style="fill-rule:evenodd;fill:rgb(66.299438%,81.999207%,55.699158%);fill-opacity:1;stroke-width:0.55003;stroke-linecap:butt;stroke-linejoin:round;stroke:rgb(36.898804%,55.699158%,30.599976%);stroke-opacity:1;stroke-miterlimit:10;" d="M 265.320312 364.678125 L 273.960938 364.678125 L 273.960938 373.31875 L 265.320312 373.31875 Z M 265.320312 364.678125 " transform="matrix(1,0,0,-1,217,547.6)"/>
<path style="fill-rule:evenodd;fill:rgb(66.299438%,81.999207%,55.699158%);fill-opacity:1;stroke-width:0.55003;stroke-linecap:butt;stroke-linejoin:round;stroke:rgb(36.898804%,55.699158%,30.599976%);stroke-opacity:1;stroke-miterlimit:10;" d="M 279.71875 364.678125 L 288.359375 364.678125 L 288.359375 373.31875 L 279.71875 373.31875 Z M 279.71875 364.678125 " transform="matrix(1,0,0,-1,217,547.6)"/>
<path style="fill-rule:evenodd;fill:rgb(66.299438%,81.999207%,55.699158%);fill-opacity:1;stroke-width:0.55003;stroke-linecap:butt;stroke-linejoin:round;stroke:rgb(36.898804%,55.699158%,30.599976%);stroke-opacity:1;stroke-miterlimit:10;" d="M 294.121094 364.678125 L 302.761719 364.678125 L 302.761719 373.31875 L 294.121094 373.31875 Z M 294.121094 364.678125 " transform="matrix(1,0,0,-1,217,547.6)"/>
<path style="fill-rule:evenodd;fill:rgb(66.299438%,81.999207%,55.699158%);fill-opacity:1;stroke-width:1.0001;stroke-linecap:butt;stroke-linejoin:round;stroke:rgb(0%,0%,0%);stroke-opacity:1;stroke-miterlimit:10;" d="M 245.160156 350.869531 C 245.160156 353.721094 247.46875 356.029687 250.320312 356.029687 L 301.921875 356.029687 C 304.769531 356.029687 307.078125 353.721094 307.078125 350.869531 L 307.078125 330.228906 C 307.078125 327.38125 304.769531 325.06875 301.921875 325.06875 L 250.320312 325.06875 C 247.46875 325.06875 245.160156 327.38125 245.160156 330.228906 Z M 245.160156 350.869531 " transform="matrix(1,0,0,-1,217,547.6)"/>
<g style="fill:rgb(6.669617%,6.669617%,6.669617%);fill-opacity:1;">
  <use xlink:href="#glyph1-1" x="474.74" y="203.84"/>
</g>
<g style="fill:rgb(6.669617%,6.669617%,6.669617%);fill-opacity:1;">
  <use xlink:href="#glyph1-2" x="480.50455" y="203.84"/>
</g>
<g style="fill:rgb(6.669617%,6.669617%,6.669617%);fill-opacity:1;">
  <use xlink:href="#glyph1-3" x="487.69184" y="203.84"/>
</g>
<g style="fill:rgb(6.669617%,6.669617%,6.669617%);fill-opacity:1;">
  <use xlink:href="#glyph1-4" x="494.16776" y="203.84"/>
</g>
<g style="fill:rgb(6.669617%,6.669617%,6.669617%);fill-opacity:1;">
  <use xlink:href="#glyph1-5" x="499.93231" y="203.84"/>
</g>
<g style="fill:rgb(6.669617%,6.669617%,6.669617%);fill-opacity:1;">
  <use xlink:href="#glyph1-6" x="506.40823" y="203.84"/>
</g>
<g style="fill:rgb(6.669617%,6.669617%,6.669617%);fill-opacity:1;">
  <use xlink:href="#glyph1-7" x="510.713245" y="203.84"/>
</g>
<g style="fill:rgb(6.669617%,6.669617%,6.669617%);fill-opacity:1;">
  <use xlink:href="#glyph1-8" x="482.06" y="218.26"/>
</g>
<g style="fill:rgb(6.669617%,6.669617%,6.669617%);fill-opacity:1;">
  <use xlink:href="#glyph1-3" x="490.69456" y="218.26"/>
</g>
<g style="fill:rgb(6.669617%,6.669617%,6.669617%);fill-opacity:1;">
  <use xlink:href="#glyph1-9" x="497.17048" y="218.26"/>
</g>
<g style="fill:rgb(6.669617%,6.669617%,6.669617%);fill-opacity:1;">
  <use xlink:href="#glyph1-10" x="500.04049" y="218.26"/>
</g>
<path style="fill-rule:evenodd;fill:rgb(61.599731%,76.499939%,90.19928%);fill-opacity:1;stroke-width:1.0001;stroke-linecap:butt;stroke-linejoin:round;stroke:rgb(0%,0%,0%);stroke-opacity:1;stroke-miterlimit:10;" d="M 245.160156 314.150781 C 245.160156 316.998437 247.46875 319.310937 250.320312 319.310937 L 301.921875 319.310937 C 304.769531 319.310937 307.078125 316.998437 307.078125 314.150781 L 307.078125 293.510156 C 307.078125 290.658594 304.769531 288.35 301.921875 288.35 L 250.320312 288.35 C 247.46875 288.35 245.160156 290.658594 245.160156 293.510156 Z M 245.160156 314.150781 " transform="matrix(1,0,0,-1,217,547.6)"/>
<g style="fill:rgb(6.669617%,6.669617%,6.669617%);fill-opacity:1;">
  <use xlink:href="#glyph1-11" x="473.44" y="240.63"/>
</g>
<g style="fill:rgb(6.669617%,6.669617%,6.669617%);fill-opacity:1;">
  <use xlink:href="#glyph1-12" x="481.36319" y="240.63"/>
</g>
<g style="fill:rgb(6.669617%,6.669617%,6.669617%);fill-opacity:1;">
  <use xlink:href="#glyph1-13" x="487.83911" y="240.63"/>
</g>
<g style="fill:rgb(6.669617%,6.669617%,6.669617%);fill-opacity:1;">
  <use xlink:href="#glyph1-6" x="495.0264" y="240.63"/>
</g>
<g style="fill:rgb(6.669617%,6.669617%,6.669617%);fill-opacity:1;">
  <use xlink:href="#glyph1-2" x="498.63231" y="240.63"/>
</g>
<g style="fill:rgb(6.669617%,6.669617%,6.669617%);fill-opacity:1;">
  <use xlink:href="#glyph1-14" x="505.10823" y="240.63"/>
</g>
<g style="fill:rgb(6.669617%,6.669617%,6.669617%);fill-opacity:1;">
  <use xlink:href="#glyph1-15" x="471.06" y="255.06"/>
</g>
<g style="fill:rgb(6.669617%,6.669617%,6.669617%);fill-opacity:1;">
  <use xlink:href="#glyph1-2" x="481.14183" y="255.06"/>
</g>
<g style="fill:rgb(6.669617%,6.669617%,6.669617%);fill-opacity:1;">
  <use xlink:href="#glyph1-16" x="487.61775" y="255.06"/>
</g>
<g style="fill:rgb(6.669617%,6.669617%,6.669617%);fill-opacity:1;">
  <use xlink:href="#glyph1-5" x="497.69958" y="255.06"/>
</g>
<g style="fill:rgb(6.669617%,6.669617%,6.669617%);fill-opacity:1;">
  <use xlink:href="#glyph1-6" x="504.1755" y="255.06"/>
</g>
<g style="fill:rgb(6.669617%,6.669617%,6.669617%);fill-opacity:1;">
  <use xlink:href="#glyph1-17" x="508.480515" y="255.06"/>
</g>
<path style="fill-rule:evenodd;fill:rgb(97.299194%,97.599792%,97.999573%);fill-opacity:1;stroke-width:1.0001;stroke-linecap:butt;stroke-linejoin:round;stroke:rgb(16.499329%,16.499329%,16.499329%);stroke-opacity:1;stroke-miterlimit:10;" d="M 358.199219 396.6 C 358.199219 405.209375 365.179688 412.201562 373.800781 412.201562 L 436.199219 412.201562 C 444.820312 412.201562 451.800781 405.209375 451.800781 396.6 L 451.800781 274.428125 C 451.800781 265.810937 444.820312 258.830469 436.199219 258.830469 L 373.800781 258.830469 C 365.179688 258.830469 358.199219 265.810937 358.199219 274.428125 Z M 358.199219 396.6 " transform="matrix(1,0,0,-1,217,547.6)"/>
<g style="fill:rgb(6.669617%,6.669617%,6.669617%);fill-opacity:1;">
  <use xlink:href="#glyph0-1" x="586.63" y="152.97"/>
</g>
<g style="fill:rgb(6.669617%,6.669617%,6.669617%);fill-opacity:1;">
  <use xlink:href="#glyph0-2" x="595.97681" y="152.97"/>
</g>
<g style="fill:rgb(6.669617%,6.669617%,6.669617%);fill-opacity:1;">
  <use xlink:href="#glyph0-3" x="599.581225" y="152.97"/>
</g>
<g style="fill:rgb(6.669617%,6.669617%,6.669617%);fill-opacity:1;">
  <use xlink:href="#glyph0-4" x="611.806085" y="152.97"/>
</g>
<g style="fill:rgb(6.669617%,6.669617%,6.669617%);fill-opacity:1;">
  <use xlink:href="#glyph0-5" x="619.727575" y="152.97"/>
</g>
<g style="fill:rgb(6.669617%,6.669617%,6.669617%);fill-opacity:1;">
  <use xlink:href="#glyph0-6" x="623.33199" y="152.97"/>
</g>
<g style="fill:rgb(6.669617%,6.669617%,6.669617%);fill-opacity:1;">
  <use xlink:href="#glyph0-7" x="630.51341" y="152.97"/>
</g>
<g style="fill:rgb(6.669617%,6.669617%,6.669617%);fill-opacity:1;">
  <use xlink:href="#glyph0-8" x="638.421195" y="152.97"/>
</g>
<g style="fill:rgb(6.669617%,6.669617%,6.669617%);fill-opacity:1;">
  <use xlink:href="#glyph0-9" x="642.73827" y="152.97"/>
</g>
<g style="fill:rgb(6.669617%,6.669617%,6.669617%);fill-opacity:1;">
  <use xlink:href="#glyph0-10" x="650.646055" y="152.97"/>
</g>
<path style="fill-rule:evenodd;fill:rgb(66.299438%,81.999207%,55.699158%);fill-opacity:1;stroke-width:0.55003;stroke-linecap:butt;stroke-linejoin:round;stroke:rgb(36.898804%,55.699158%,30.599976%);stroke-opacity:1;stroke-miterlimit:10;" d="M 379.800781 379.080469 L 388.441406 379.080469 L 388.441406 387.721094 L 379.800781 387.721094 Z M 379.800781 379.080469 " transform="matrix(1,0,0,-1,217,547.6)"/>
<path style="fill-rule:evenodd;fill:rgb(66.299438%,81.999207%,55.699158%);fill-opacity:1;stroke-width:0.55003;stroke-linecap:butt;stroke-linejoin:round;stroke:rgb(36.898804%,55.699158%,30.599976%);stroke-opacity:1;stroke-miterlimit:10;" d="M 394.199219 379.080469 L 402.839844 379.080469 L 402.839844 387.721094 L 394.199219 387.721094 Z M 394.199219 379.080469 " transform="matrix(1,0,0,-1,217,547.6)"/>
<path style="fill-rule:evenodd;fill:rgb(66.299438%,81.999207%,55.699158%);fill-opacity:1;stroke-width:0.55003;stroke-linecap:butt;stroke-linejoin:round;stroke:rgb(36.898804%,55.699158%,30.599976%);stroke-opacity:1;stroke-miterlimit:10;" d="M 408.601562 379.080469 L 417.238281 379.080469 L 417.238281 387.721094 L 408.601562 387.721094 Z M 408.601562 379.080469 " transform="matrix(1,0,0,-1,217,547.6)"/>
<path style="fill-rule:evenodd;fill:rgb(66.299438%,81.999207%,55.699158%);fill-opacity:1;stroke-width:0.55003;stroke-linecap:butt;stroke-linejoin:round;stroke:rgb(36.898804%,55.699158%,30.599976%);stroke-opacity:1;stroke-miterlimit:10;" d="M 423 379.080469 L 431.640625 379.080469 L 431.640625 387.721094 L 423 387.721094 Z M 423 379.080469 " transform="matrix(1,0,0,-1,217,547.6)"/>
<path style="fill-rule:evenodd;fill:rgb(66.299438%,81.999207%,55.699158%);fill-opacity:1;stroke-width:0.55003;stroke-linecap:butt;stroke-linejoin:round;stroke:rgb(36.898804%,55.699158%,30.599976%);stroke-opacity:1;stroke-miterlimit:10;" d="M 379.800781 364.678125 L 388.441406 364.678125 L 388.441406 373.31875 L 379.800781 373.31875 Z M 379.800781 364.678125 " transform="matrix(1,0,0,-1,217,547.6)"/>
<path style="fill-rule:evenodd;fill:rgb(66.299438%,81.999207%,55.699158%);fill-opacity:1;stroke-width:0.55003;stroke-linecap:butt;stroke-linejoin:round;stroke:rgb(36.898804%,55.699158%,30.599976%);stroke-opacity:1;stroke-miterlimit:10;" d="M 394.199219 364.678125 L 402.839844 364.678125 L 402.839844 373.31875 L 394.199219 373.31875 Z M 394.199219 364.678125 " transform="matrix(1,0,0,-1,217,547.6)"/>
<path style="fill-rule:evenodd;fill:rgb(66.299438%,81.999207%,55.699158%);fill-opacity:1;stroke-width:0.55003;stroke-linecap:butt;stroke-linejoin:round;stroke:rgb(36.898804%,55.699158%,30.599976%);stroke-opacity:1;stroke-miterlimit:10;" d="M 408.601562 364.678125 L 417.238281 364.678125 L 417.238281 373.31875 L 408.601562 373.31875 Z M 408.601562 364.678125 " transform="matrix(1,0,0,-1,217,547.6)"/>
<path style="fill-rule:evenodd;fill:rgb(66.299438%,81.999207%,55.699158%);fill-opacity:1;stroke-width:0.55003;stroke-linecap:butt;stroke-linejoin:round;stroke:rgb(36.898804%,55.699158%,30.599976%);stroke-opacity:1;stroke-miterlimit:10;" d="M 423 364.678125 L 431.640625 364.678125 L 431.640625 373.31875 L 423 373.31875 Z M 423 364.678125 " transform="matrix(1,0,0,-1,217,547.6)"/>
<path style="fill-rule:evenodd;fill:rgb(66.299438%,81.999207%,55.699158%);fill-opacity:1;stroke-width:1.0001;stroke-linecap:butt;stroke-linejoin:round;stroke:rgb(0%,0%,0%);stroke-opacity:1;stroke-miterlimit:10;" d="M 374.039062 350.869531 C 374.039062 353.721094 376.351562 356.029687 379.199219 356.029687 L 430.800781 356.029687 C 433.648438 356.029687 435.960938 353.721094 435.960938 350.869531 L 435.960938 330.228906 C 435.960938 327.38125 433.648438 325.06875 430.800781 325.06875 L 379.199219 325.06875 C 376.351562 325.06875 374.039062 327.38125 374.039062 330.228906 Z M 374.039062 350.869531 " transform="matrix(1,0,0,-1,217,547.6)"/>
<g style="fill:rgb(6.669617%,6.669617%,6.669617%);fill-opacity:1;">
  <use xlink:href="#glyph1-1" x="603.71" y="203.84"/>
</g>
<g style="fill:rgb(6.669617%,6.669617%,6.669617%);fill-opacity:1;">
  <use xlink:href="#glyph1-2" x="609.47455" y="203.84"/>
</g>
<g style="fill:rgb(6.669617%,6.669617%,6.669617%);fill-opacity:1;">
  <use xlink:href="#glyph1-3" x="616.66184" y="203.84"/>
</g>
<g style="fill:rgb(6.669617%,6.669617%,6.669617%);fill-opacity:1;">
  <use xlink:href="#glyph1-4" x="623.13776" y="203.84"/>
</g>
<g style="fill:rgb(6.669617%,6.669617%,6.669617%);fill-opacity:1;">
  <use xlink:href="#glyph1-5" x="628.90231" y="203.84"/>
</g>
<g style="fill:rgb(6.669617%,6.669617%,6.669617%);fill-opacity:1;">
  <use xlink:href="#glyph1-6" x="635.37823" y="203.84"/>
</g>
<g style="fill:rgb(6.669617%,6.669617%,6.669617%);fill-opacity:1;">
  <use xlink:href="#glyph1-7" x="639.683245" y="203.84"/>
</g>
<g style="fill:rgb(6.669617%,6.669617%,6.669617%);fill-opacity:1;">
  <use xlink:href="#glyph1-8" x="611.04" y="218.26"/>
</g>
<g style="fill:rgb(6.669617%,6.669617%,6.669617%);fill-opacity:1;">
  <use xlink:href="#glyph1-3" x="619.69909" y="218.26"/>
</g>
<g style="fill:rgb(6.669617%,6.669617%,6.669617%);fill-opacity:1;">
  <use xlink:href="#glyph1-9" x="626.19954" y="218.26"/>
</g>
<g style="fill:rgb(6.669617%,6.669617%,6.669617%);fill-opacity:1;">
  <use xlink:href="#glyph1-10" x="629.06955" y="218.26"/>
</g>
<path style="fill-rule:evenodd;fill:rgb(61.599731%,76.499939%,90.19928%);fill-opacity:1;stroke-width:1.0001;stroke-linecap:butt;stroke-linejoin:round;stroke:rgb(0%,0%,0%);stroke-opacity:1;stroke-miterlimit:10;" d="M 374.039062 314.150781 C 374.039062 316.998437 376.351562 319.310937 379.199219 319.310937 L 430.800781 319.310937 C 433.648438 319.310937 435.960938 316.998437 435.960938 314.150781 L 435.960938 293.510156 C 435.960938 290.658594 433.648438 288.35 430.800781 288.35 L 379.199219 288.35 C 376.351562 288.35 374.039062 290.658594 374.039062 293.510156 Z M 374.039062 314.150781 " transform="matrix(1,0,0,-1,217,547.6)"/>
<g style="fill:rgb(6.669617%,6.669617%,6.669617%);fill-opacity:1;">
  <use xlink:href="#glyph1-11" x="602.42" y="240.63"/>
</g>
<g style="fill:rgb(6.669617%,6.669617%,6.669617%);fill-opacity:1;">
  <use xlink:href="#glyph1-12" x="610.34319" y="240.63"/>
</g>
<g style="fill:rgb(6.669617%,6.669617%,6.669617%);fill-opacity:1;">
  <use xlink:href="#glyph1-13" x="616.81911" y="240.63"/>
</g>
<g style="fill:rgb(6.669617%,6.669617%,6.669617%);fill-opacity:1;">
  <use xlink:href="#glyph1-6" x="624.0064" y="240.63"/>
</g>
<g style="fill:rgb(6.669617%,6.669617%,6.669617%);fill-opacity:1;">
  <use xlink:href="#glyph1-2" x="627.61231" y="240.63"/>
</g>
<g style="fill:rgb(6.669617%,6.669617%,6.669617%);fill-opacity:1;">
  <use xlink:href="#glyph1-14" x="634.08823" y="240.63"/>
</g>
<g style="fill:rgb(6.669617%,6.669617%,6.669617%);fill-opacity:1;">
  <use xlink:href="#glyph1-15" x="600.04" y="255.06"/>
</g>
<g style="fill:rgb(6.669617%,6.669617%,6.669617%);fill-opacity:1;">
  <use xlink:href="#glyph1-2" x="610.12183" y="255.06"/>
</g>
<g style="fill:rgb(6.669617%,6.669617%,6.669617%);fill-opacity:1;">
  <use xlink:href="#glyph1-16" x="616.59775" y="255.06"/>
</g>
<g style="fill:rgb(6.669617%,6.669617%,6.669617%);fill-opacity:1;">
  <use xlink:href="#glyph1-5" x="626.67958" y="255.06"/>
</g>
<g style="fill:rgb(6.669617%,6.669617%,6.669617%);fill-opacity:1;">
  <use xlink:href="#glyph1-6" x="633.1555" y="255.06"/>
</g>
<g style="fill:rgb(6.669617%,6.669617%,6.669617%);fill-opacity:1;">
  <use xlink:href="#glyph1-17" x="637.460515" y="255.06"/>
</g>
<g style="fill:rgb(6.669617%,6.669617%,6.669617%);fill-opacity:1;">
  <use xlink:href="#glyph2-1" x="549.29" y="198.52"/>
</g>
<g style="fill:rgb(6.669617%,6.669617%,6.669617%);fill-opacity:1;">
  <use xlink:href="#glyph2-1" x="555.02254" y="198.52"/>
</g>
<g style="fill:rgb(6.669617%,6.669617%,6.669617%);fill-opacity:1;">
  <use xlink:href="#glyph2-1" x="560.06879" y="198.52"/>
</g>
<path style="fill-rule:evenodd;fill:rgb(61.599731%,76.499939%,90.19928%);fill-opacity:1;stroke-width:1.0001;stroke-linecap:butt;stroke-linejoin:round;stroke:rgb(0%,0%,0%);stroke-opacity:1;stroke-miterlimit:10;" d="M 132.839844 234.760156 C 132.839844 238.908594 136.199219 242.271875 140.351562 242.271875 L 437.089844 242.271875 C 441.238281 242.271875 444.601562 238.908594 444.601562 234.760156 L 444.601562 222.408594 C 444.601562 218.271875 441.238281 214.908594 437.089844 214.908594 L 140.351562 214.908594 C 136.199219 214.908594 132.839844 218.271875 132.839844 222.408594 Z M 132.839844 234.760156 " transform="matrix(1,0,0,-1,217,547.6)"/>
<g style="fill:rgb(6.669617%,6.669617%,6.669617%);fill-opacity:1;">
  <use xlink:href="#glyph0-11" x="475.6" y="323.61"/>
</g>
<g style="fill:rgb(6.669617%,6.669617%,6.669617%);fill-opacity:1;">
  <use xlink:href="#glyph0-12" x="483.507785" y="323.61"/>
</g>
<g style="fill:rgb(6.669617%,6.669617%,6.669617%);fill-opacity:1;">
  <use xlink:href="#glyph0-5" x="491.41557" y="323.61"/>
</g>
<g style="fill:rgb(6.669617%,6.669617%,6.669617%);fill-opacity:1;">
  <use xlink:href="#glyph0-13" x="495.019985" y="323.61"/>
</g>
<g style="fill:rgb(6.669617%,6.669617%,6.669617%);fill-opacity:1;">
  <use xlink:href="#glyph0-14" x="505.09316" y="323.61"/>
</g>
<g style="fill:rgb(6.669617%,6.669617%,6.669617%);fill-opacity:1;">
  <use xlink:href="#glyph0-6" x="513.000945" y="323.61"/>
</g>
<g style="fill:rgb(6.669617%,6.669617%,6.669617%);fill-opacity:1;">
  <use xlink:href="#glyph0-15" x="519.48341" y="323.61"/>
</g>
<g style="fill:rgb(6.669617%,6.669617%,6.669617%);fill-opacity:1;">
  <use xlink:href="#glyph0-9" x="527.391195" y="323.61"/>
</g>
<g style="fill:rgb(6.669617%,6.669617%,6.669617%);fill-opacity:1;">
  <use xlink:href="#glyph2-2" x="465.72" y="123.5"/>
</g>
<g style="fill:rgb(6.669617%,6.669617%,6.669617%);fill-opacity:1;">
  <use xlink:href="#glyph2-3" x="472.21957" y="123.5"/>
</g>
<g style="fill:rgb(6.669617%,6.669617%,6.669617%);fill-opacity:1;">
  <use xlink:href="#glyph2-4" x="483.745205" y="123.5"/>
</g>
<g style="fill:rgb(6.669617%,6.669617%,6.669617%);fill-opacity:1;">
  <use xlink:href="#glyph2-5" x="490.244775" y="123.5"/>
</g>
<g style="fill:rgb(6.669617%,6.669617%,6.669617%);fill-opacity:1;">
  <use xlink:href="#glyph2-6" x="495.31121" y="123.5"/>
</g>
<g style="fill:rgb(6.669617%,6.669617%,6.669617%);fill-opacity:1;">
  <use xlink:href="#glyph2-7" x="511.156435" y="123.5"/>
</g>
<g style="fill:rgb(6.669617%,6.669617%,6.669617%);fill-opacity:1;">
  <use xlink:href="#glyph2-8" x="524.841865" y="123.5"/>
</g>
<path style="fill-rule:evenodd;fill:rgb(61.599731%,76.499939%,90.19928%);fill-opacity:1;stroke-width:1.0001;stroke-linecap:butt;stroke-linejoin:round;stroke:rgb(0%,0%,0%);stroke-opacity:1;stroke-miterlimit:10;" d="M 245.160156 278.81875 C 245.160156 280.900781 246.851562 282.588281 248.929688 282.588281 L 303.308594 282.588281 C 305.390625 282.588281 307.078125 280.900781 307.078125 278.81875 L 307.078125 271.240625 C 307.078125 269.158594 305.390625 267.471094 303.308594 267.471094 L 248.929688 267.471094 C 246.851562 267.471094 245.160156 269.158594 245.160156 271.240625 Z M 245.160156 278.81875 " transform="matrix(1,0,0,-1,217,547.6)"/>
<g style="fill:rgb(6.669617%,6.669617%,6.669617%);fill-opacity:1;">
  <use xlink:href="#glyph3-1" x="467.11" y="276.71"/>
</g>
<g style="fill:rgb(6.669617%,6.669617%,6.669617%);fill-opacity:1;">
  <use xlink:href="#glyph3-2" x="473.58496" y="276.71"/>
</g>
<g style="fill:rgb(6.669617%,6.669617%,6.669617%);fill-opacity:1;">
  <use xlink:href="#glyph3-3" x="480.05992" y="276.71"/>
</g>
<g style="fill:rgb(6.669617%,6.669617%,6.669617%);fill-opacity:1;">
  <use xlink:href="#glyph3-4" x="483.64624" y="276.71"/>
</g>
<g style="fill:rgb(6.669617%,6.669617%,6.669617%);fill-opacity:1;">
  <use xlink:href="#glyph3-5" x="492.28768" y="276.71"/>
</g>
<g style="fill:rgb(6.669617%,6.669617%,6.669617%);fill-opacity:1;">
  <use xlink:href="#glyph3-6" x="498.76264" y="276.71"/>
</g>
<g style="fill:rgb(6.669617%,6.669617%,6.669617%);fill-opacity:1;">
  <use xlink:href="#glyph3-7" x="505.22536" y="276.71"/>
</g>
<g style="fill:rgb(6.669617%,6.669617%,6.669617%);fill-opacity:1;">
  <use xlink:href="#glyph3-8" x="511.70032" y="276.71"/>
</g>
<path style="fill-rule:evenodd;fill:rgb(61.599731%,76.499939%,90.19928%);fill-opacity:1;stroke-width:1.0001;stroke-linecap:butt;stroke-linejoin:round;stroke:rgb(0%,0%,0%);stroke-opacity:1;stroke-miterlimit:10;" d="M 374.039062 278.81875 C 374.039062 280.900781 375.730469 282.588281 377.808594 282.588281 L 432.191406 282.588281 C 434.269531 282.588281 435.960938 280.900781 435.960938 278.81875 L 435.960938 271.240625 C 435.960938 269.158594 434.269531 267.471094 432.191406 267.471094 L 377.808594 267.471094 C 375.730469 267.471094 374.039062 269.158594 374.039062 271.240625 Z M 374.039062 278.81875 " transform="matrix(1,0,0,-1,217,547.6)"/>
<g style="fill:rgb(6.669617%,6.669617%,6.669617%);fill-opacity:1;">
  <use xlink:href="#glyph1-18" x="596.17" y="276.73"/>
</g>
<g style="fill:rgb(6.669617%,6.669617%,6.669617%);fill-opacity:1;">
  <use xlink:href="#glyph1-19" x="602.64592" y="276.73"/>
</g>
<g style="fill:rgb(6.669617%,6.669617%,6.669617%);fill-opacity:1;">
  <use xlink:href="#glyph1-7" x="609.12184" y="276.73"/>
</g>
<g style="fill:rgb(6.669617%,6.669617%,6.669617%);fill-opacity:1;">
  <use xlink:href="#glyph1-20" x="612.715485" y="276.73"/>
</g>
<g style="fill:rgb(6.669617%,6.669617%,6.669617%);fill-opacity:1;">
  <use xlink:href="#glyph1-13" x="621.350045" y="276.73"/>
</g>
<g style="fill:rgb(6.669617%,6.669617%,6.669617%);fill-opacity:1;">
  <use xlink:href="#glyph1-21" x="627.825965" y="276.73"/>
</g>
<g style="fill:rgb(6.669617%,6.669617%,6.669617%);fill-opacity:1;">
  <use xlink:href="#glyph1-12" x="634.28962" y="276.73"/>
</g>
<g style="fill:rgb(6.669617%,6.669617%,6.669617%);fill-opacity:1;">
  <use xlink:href="#glyph1-2" x="640.76554" y="276.73"/>
</g>
<path style="fill-rule:evenodd;fill:rgb(61.599731%,76.499939%,90.19928%);fill-opacity:1;stroke-width:1.0001;stroke-linecap:butt;stroke-linejoin:round;stroke:rgb(0%,0%,0%);stroke-opacity:1;stroke-miterlimit:10;" d="M 142.199219 278.81875 C 142.199219 280.900781 143.890625 282.588281 145.96875 282.588281 L 200.351562 282.588281 C 202.429688 282.588281 204.121094 280.900781 204.121094 278.81875 L 204.121094 271.240625 C 204.121094 269.158594 202.429688 267.471094 200.351562 267.471094 L 145.96875 267.471094 C 143.890625 267.471094 142.199219 269.158594 142.199219 271.240625 Z M 142.199219 278.81875 " transform="matrix(1,0,0,-1,217,547.6)"/>
<g style="fill:rgb(6.669617%,6.669617%,6.669617%);fill-opacity:1;">
  <use xlink:href="#glyph1-18" x="364.08" y="276.88"/>
</g>
<g style="fill:rgb(6.669617%,6.669617%,6.669617%);fill-opacity:1;">
  <use xlink:href="#glyph1-19" x="370.55592" y="276.88"/>
</g>
<g style="fill:rgb(6.669617%,6.669617%,6.669617%);fill-opacity:1;">
  <use xlink:href="#glyph1-7" x="377.03184" y="276.88"/>
</g>
<g style="fill:rgb(6.669617%,6.669617%,6.669617%);fill-opacity:1;">
  <use xlink:href="#glyph1-20" x="380.625485" y="276.88"/>
</g>
<g style="fill:rgb(6.669617%,6.669617%,6.669617%);fill-opacity:1;">
  <use xlink:href="#glyph1-13" x="389.260045" y="276.88"/>
</g>
<g style="fill:rgb(6.669617%,6.669617%,6.669617%);fill-opacity:1;">
  <use xlink:href="#glyph1-21" x="395.735965" y="276.88"/>
</g>
<g style="fill:rgb(6.669617%,6.669617%,6.669617%);fill-opacity:1;">
  <use xlink:href="#glyph1-12" x="402.19962" y="276.88"/>
</g>
<g style="fill:rgb(6.669617%,6.669617%,6.669617%);fill-opacity:1;">
  <use xlink:href="#glyph1-2" x="408.67554" y="276.88"/>
</g>
<g clip-path="url(#clip2)" clip-rule="nonzero">
<path style="fill:none;stroke-width:1.0001;stroke-linecap:butt;stroke-linejoin:miter;stroke:rgb(0%,0%,0%);stroke-opacity:1;stroke-dasharray:4.0002,3.0002;stroke-miterlimit:10;" d="M 466.199219 430.920312 L 466.199219 216.209375 " transform="matrix(1,0,0,-1,217,547.6)"/>
</g>
</g>
</svg>
